<?xml version="1.0" standalone="no"?>
<!DOCTYPE svg PUBLIC "-//W3C//DTD SVG 20010904//EN"
 "http://www.w3.org/TR/2001/REC-SVG-20010904/DTD/svg10.dtd">
<svg version="1.0" xmlns="http://www.w3.org/2000/svg"
 width="500.000000pt" height="500.000000pt" viewBox="0 0 500.000000 500.000000"
 preserveAspectRatio="xMidYMid meet">

<g transform="translate(0.000000,500.000000) scale(0.100000,-0.100000)"
fill="#000000" stroke="none">
<path d="M2275 4579 c-163 -17 -344 -60 -534 -126 -83 -29 -181 -70 -181 -77
0 -3 39 -26 88 -52 48 -26 90 -52 94 -58 11 -17 10 -236 -2 -236 -15 0 -76 30
-182 88 -80 44 -100 51 -117 43 -28 -15 -31 -14 -31 12 0 12 -9 28 -20 35 -11
7 -20 20 -20 30 0 10 -3 13 -8 7 -4 -6 -30 -25 -59 -43 -28 -18 -57 -40 -63
-48 -16 -18 -45 -18 -64 2 -15 14 -18 14 -42 -5 -30 -24 -49 -27 -41 -8 3 8 0
14 -6 14 -7 0 -23 3 -37 8 -21 7 -23 6 -13 -6 6 -8 -27 5 -75 29 -70 34 -103
44 -167 51 l-80 8 60 2 c70 3 64 8 -17 14 -36 2 -55 0 -51 -6 3 -6 1 -7 -6 -3
-14 9 -73 -25 -119 -68 -140 -129 -114 -380 62 -600 46 -57 53 -72 45 -88 -5
-10 -7 -24 -3 -31 4 -6 4 -9 -1 -5 -12 11 -58 -60 -51 -78 3 -9 1 -12 -4 -9
-6 3 -10 2 -10 -3 0 -6 7 -12 15 -15 18 -7 55 -79 55 -107 0 -22 15 -27 26 -8
4 7 3 8 -4 4 -7 -4 -12 -3 -12 3 0 6 9 15 20 21 11 6 18 15 15 19 -2 5 3 15
13 22 15 13 16 12 3 -3 -17 -23 -9 -23 39 2 48 24 57 25 39 3 -10 -11 -10 -14
-1 -9 9 5 12 -8 13 -56 1 -35 3 -56 6 -46 2 9 11 19 19 22 8 3 13 2 10 -3 -7
-11 16 -31 42 -36 15 -3 19 1 15 11 -3 8 1 22 8 32 7 9 1 6 -13 -7 -27 -24
-51 -22 -41 4 3 9 -1 15 -11 15 -9 0 -16 5 -16 11 0 5 5 7 12 3 6 -4 8 -3 4 4
-3 6 -2 13 4 17 5 3 10 0 10 -7 0 -9 3 -9 10 2 8 13 10 12 10 -2 0 -12 8 -18
25 -18 35 0 38 -1 60 -16 21 -15 39 -19 32 -6 -3 4 11 8 30 8 19 1 30 -2 24
-5 -6 -4 16 -8 50 -9 68 -2 85 3 70 22 -8 9 -7 13 4 13 8 0 15 -8 15 -18 0
-10 5 -21 10 -24 6 -3 10 -17 10 -31 0 -14 4 -22 10 -19 5 3 18 1 27 -5 15 -8
13 -10 -12 -7 -24 3 -31 9 -33 30 -2 15 -7 27 -12 27 -18 0 -19 -19 -3 -49 18
-30 33 -40 33 -22 0 6 13 5 32 -1 28 -10 29 -12 12 -18 -10 -4 -24 -4 -30 1
-25 20 -20 -4 7 -34 16 -17 29 -37 29 -43 0 -7 6 -14 14 -17 7 -3 27 -30 44
-60 48 -85 93 -127 135 -127 19 0 43 3 52 6 20 8 55 75 55 107 0 13 -30 72
-67 132 -38 60 -67 115 -65 123 2 8 -1 11 -7 7 -6 -3 -11 -1 -11 5 0 6 -7 18
-15 27 -8 8 -13 19 -10 24 4 5 1 9 -6 9 -6 0 -21 10 -32 23 -15 16 -18 17 -14
5 4 -10 2 -18 -3 -18 -6 0 -10 5 -10 11 0 5 -4 8 -9 4 -19 -11 -19 12 -1 25
14 10 16 17 8 27 -7 9 -7 13 1 14 20 3 26 4 38 12 6 4 14 3 17 -2 4 -5 14 -8
24 -6 9 2 27 4 40 4 45 2 17 81 -37 103 l-26 11 33 9 c18 5 30 13 27 18 -4 6
-1 11 4 11 6 1 16 2 23 3 6 0 13 8 15 16 3 10 2 11 -4 4 -4 -6 -18 -10 -30 -9
-12 1 -21 -3 -20 -8 1 -5 -8 -13 -21 -18 -15 -6 -21 -5 -17 1 3 6 13 10 22 10
12 0 13 3 4 14 -10 12 -9 14 6 12 10 -2 28 4 41 12 12 8 22 10 22 6 0 -5 4 -4
8 3 6 9 11 6 21 -8 7 -12 8 -19 3 -15 -5 3 -9 -1 -9 -9 0 -8 5 -13 11 -12 5 1
10 -3 11 -10 0 -6 4 -15 9 -20 5 -5 6 -3 2 5 -4 6 -2 12 3 12 6 0 11 -4 11 -9
0 -5 3 -16 6 -25 4 -11 1 -16 -10 -16 -9 0 -16 -5 -16 -11 0 -5 4 -8 8 -5 5 3
9 -1 9 -9 0 -11 -4 -12 -13 -4 -20 17 -53 -18 -49 -52 4 -28 3 -29 -40 -29
-54 0 -61 -20 -7 -21 37 -1 37 -1 7 -9 -16 -4 -23 -8 -14 -9 19 -1 101 -42
125 -62 16 -13 16 -12 0 19 -9 17 -13 32 -9 32 5 0 1 5 -7 10 -13 8 -12 10 3
10 9 0 17 -7 17 -15 0 -10 9 -14 26 -13 21 2 24 6 19 26 -3 13 -2 33 2 45 5
13 10 -51 13 -156 l5 -179 39 -35 38 -35 -4 -164 c-2 -90 0 -160 4 -156 4 4 8
80 10 169 l3 161 -28 19 c-52 34 -57 55 -57 261 0 170 2 191 18 205 10 10 26
17 35 17 19 0 104 -41 270 -129 64 -34 117 -60 117 -57 0 3 -22 17 -50 31
l-50 25 -2 253 -3 252 -2 -247 c-2 -137 -7 -248 -11 -248 -4 0 -15 7 -25 14
-17 13 -18 37 -17 342 1 345 1 347 47 365 30 11 77 -10 305 -135 97 -53 179
-96 183 -96 4 0 63 -32 131 -70 69 -39 130 -68 136 -64 6 4 8 3 5 -3 -3 -5 24
-25 61 -43 37 -18 111 -58 165 -87 55 -31 102 -51 110 -47 6 4 9 4 5 -1 -9 -9
18 -27 111 -75 52 -28 64 -30 79 -19 14 11 15 11 5 -1 -15 -16 25 -40 382
-227 123 -64 235 -130 255 -149 l35 -34 0 -540 c0 -297 3 -540 8 -540 4 0 7
15 7 33 5 797 4 1044 -4 1039 -5 -3 -7 5 -4 16 4 12 3 20 -1 18 -4 -3 -14 4
-21 15 -8 10 -20 19 -28 19 -7 0 -10 5 -7 10 4 6 3 9 -2 8 -16 -4 -53 14 -47
23 3 5 2 9 -3 8 -4 -1 -18 2 -31 6 -17 6 -20 11 -12 20 8 9 8 15 0 20 -6 4 -9
1 -8 -6 2 -6 -3 -14 -11 -17 -8 -2 -11 0 -7 6 3 6 1 14 -5 18 -8 5 -9 3 -4 -6
6 -10 4 -12 -9 -7 -10 4 -20 7 -22 7 -3 0 -2 5 2 12 4 7 3 8 -4 4 -13 -8 -56
17 -46 26 3 3 -1 6 -8 5 -34 -1 -49 4 -42 15 4 6 3 8 -4 4 -6 -3 -25 2 -42 13
-30 18 -31 20 -13 30 16 11 16 11 -5 6 -12 -4 -21 -3 -20 2 2 4 -1 8 -7 8 -5
0 -9 -3 -7 -7 4 -15 -17 -8 -26 8 -5 9 -12 15 -15 15 -24 -3 -34 1 -34 14 0
18 2 18 30 4 18 -10 20 -9 9 2 -7 7 -27 14 -45 14 -48 1 -102 25 -85 37 9 7 7
8 -9 5 -12 -3 -27 1 -34 9 -6 8 -16 11 -22 7 -6 -4 -7 -1 -2 7 6 10 4 12 -9 7
-11 -4 -15 -3 -11 4 4 6 13 8 21 5 8 -3 14 -1 14 4 0 5 -7 10 -15 12 -13 2
-12 5 4 15 18 11 19 10 14 -4 -5 -13 -2 -15 12 -9 18 7 18 6 1 -13 -13 -14
-14 -21 -5 -27 7 -4 17 0 25 10 13 18 54 14 54 -5 0 -13 -18 -11 -23 4 -2 6
-8 9 -12 5 -4 -4 -3 -14 3 -21 7 -8 9 -16 6 -19 -2 -3 2 -8 10 -11 9 -4 18 -1
22 5 4 7 3 8 -4 4 -7 -4 -12 -3 -12 3 0 11 18 24 38 27 6 1 10 -2 6 -7 -3 -5
-11 -6 -17 -3 -9 5 -9 3 0 -6 10 -11 15 -11 28 0 8 7 18 10 22 6 3 -3 1 -6 -6
-6 -7 0 -10 -4 -7 -9 4 -5 0 -12 -6 -14 -10 -4 -9 -6 1 -6 8 -1 20 7 28 17 13
15 13 15 4 -5 -9 -19 -7 -22 21 -32 17 -6 40 -11 50 -11 12 0 16 -4 12 -12 -4
-7 -3 -8 4 -4 7 4 12 3 12 -3 0 -5 9 -13 20 -16 11 -3 27 -13 35 -22 14 -14
15 -13 11 10 -5 31 3 35 76 31 47 -3 57 -1 61 14 3 9 5 -2 4 -26 -1 -44 11
-62 45 -62 9 0 20 5 23 10 4 6 11 7 17 4 7 -4 8 -2 4 4 -4 7 -1 12 8 12 10 0
13 7 11 20 -2 11 0 18 6 15 5 -4 9 -17 9 -31 0 -17 -4 -23 -12 -18 -7 4 -8 3
-4 -4 4 -6 14 -8 23 -5 12 5 14 3 8 -7 -6 -10 -1 -12 21 -7 23 4 33 1 42 -13
7 -11 18 -17 26 -14 8 3 21 2 27 -2 9 -5 7 -9 -6 -14 -18 -6 -18 -7 2 -12 16
-4 20 -1 18 11 -2 9 -4 19 -4 22 -1 3 -13 11 -27 17 -14 7 -23 8 -19 2 3 -5 1
-10 -4 -10 -6 0 -11 6 -11 13 0 7 -15 19 -34 25 l-34 13 -4 75 c-2 42 1 79 6
82 15 9 126 11 121 2 -8 -13 23 -20 33 -7 20 27 22 40 2 17 l-22 -25 6 40 c7
41 30 75 51 75 7 0 30 -8 51 -17 30 -14 40 -25 42 -46 2 -15 -2 -35 -8 -43 -7
-7 -10 -14 -6 -14 4 0 0 -11 -9 -24 -8 -13 -13 -32 -9 -42 5 -16 4 -16 -5 -4
-8 12 -11 12 -11 1 0 -7 -12 -40 -26 -72 -21 -46 -32 -59 -49 -59 -13 0 -22
-6 -22 -15 0 -8 7 -15 14 -15 8 0 11 5 7 12 -4 7 -3 8 4 4 6 -4 9 -13 6 -20
-3 -8 0 -17 7 -22 8 -4 15 -2 17 6 3 9 9 5 19 -11 l14 -24 -7 24 c-4 17 -3 21
6 16 9 -5 11 -4 6 4 -4 6 -12 8 -18 5 -7 -5 -9 -2 -5 8 3 9 0 21 -6 27 -8 8
-8 11 2 11 8 0 11 7 7 18 -5 15 -4 15 8 -1 8 -11 12 -25 10 -32 -3 -7 0 -16 7
-21 9 -5 10 -2 6 10 -5 14 -3 17 8 12 8 -3 14 -2 14 2 -3 19 3 55 8 45 2 -7 9
-13 14 -13 6 0 9 6 8 13 -3 25 1 38 11 32 6 -3 11 1 11 9 1 9 2 22 3 29 0 6 8
12 16 12 9 0 14 8 12 18 -2 12 2 15 14 10 12 -4 15 -3 10 5 -5 9 0 9 21 0 15
-7 32 -18 36 -25 4 -7 12 -13 16 -13 14 0 5 39 -15 61 -10 12 -13 19 -7 15 13
-7 -32 71 -79 138 -16 21 -28 44 -28 50 0 7 22 25 49 41 120 70 135 238 35
396 -28 45 -139 159 -155 159 -5 0 1 -10 13 -22 14 -14 18 -23 10 -26 -7 -2
-10 -8 -6 -13 10 -17 -21 -9 -56 14 -84 55 -181 77 -230 52 -37 -19 -39 -28
-4 -15 45 18 112 11 170 -16 228 -108 332 -439 173 -550 -62 -43 -116 -43
-225 -1 -147 58 -144 56 -144 93 0 18 -5 36 -11 40 -6 3 -25 36 -41 73 -38 82
-49 195 -25 253 12 29 13 36 2 32 -7 -3 -28 8 -46 24 -42 36 -175 132 -183
132 -3 0 -29 15 -58 34 -138 88 -416 194 -618 237 -212 44 -451 58 -645 38z
m100 -45 c20 -14 81 -47 134 -75 53 -27 132 -70 176 -95 44 -25 103 -58 130
-72 28 -14 115 -62 195 -107 230 -130 281 -156 292 -149 6 4 8 3 5 -2 -3 -6
22 -25 56 -44 34 -18 73 -41 87 -50 14 -10 70 -41 125 -70 55 -28 105 -56 112
-62 7 -5 18 -6 25 -2 7 4 10 3 5 -1 -4 -5 3 -19 15 -33 22 -22 23 -33 26 -205
2 -99 1 -191 -3 -204 -8 -34 -46 -30 -117 13 -32 20 -65 33 -73 30 -8 -3 -14
-1 -12 4 1 4 -23 21 -53 37 -30 16 -112 61 -181 100 -70 39 -153 85 -185 101
-33 16 -130 68 -216 115 -87 48 -161 87 -166 87 -4 0 -43 21 -87 46 -106 60
-213 118 -295 160 -37 18 -73 41 -81 50 -11 13 -15 64 -18 215 -3 189 -2 198
18 218 27 27 40 26 86 -5z m404 -75 c-7 -4 -18 -5 -26 -2 -10 4 -11 9 -2 19 9
11 15 12 26 3 11 -9 11 -14 2 -20z m206 -39 c-5 -8 -11 -8 -17 -2 -6 6 -7 16
-3 22 5 8 11 8 17 2 6 -6 7 -16 3 -22z m-35 -16 c0 -8 -7 -14 -15 -14 -17 0
-18 2 -9 24 7 18 24 12 24 -10z m78 -2 c2 -7 -3 -12 -12 -12 -9 0 -16 7 -16
16 0 17 22 14 28 -4z m-1108 0 c0 -13 -12 -22 -22 -16 -10 6 -1 24 13 24 5 0
9 -4 9 -8z m176 -19 c-10 -10 -19 5 -10 18 6 11 8 11 12 0 2 -7 1 -15 -2 -18z
m-44 -77 c1 -2 17 -11 33 -19 l30 -16 -26 -1 c-30 0 -42 -12 -57 -55 -8 -22
-11 -25 -11 -10 -1 31 -29 65 -54 66 -21 0 -21 1 -3 12 38 24 56 47 56 75 1
25 2 24 15 -11 7 -21 15 -40 17 -41z m896 45 c3 -8 -1 -12 -9 -9 -7 2 -15 10
-17 17 -3 8 1 12 9 9 7 -2 15 -10 17 -17z m82 4 c0 -8 -7 -15 -15 -15 -16 0
-20 12 -8 23 11 12 23 8 23 -8z m-50 -17 c0 -16 -3 -19 -11 -11 -6 6 -8 16 -5
22 11 17 16 13 16 -11z m211 -37 c-24 -15 -42 -2 -28 20 10 17 13 17 27 3 13
-12 13 -16 1 -23z m199 -87 c0 -29 44 -74 74 -75 19 -1 18 -2 -6 -12 -42 -19
-68 -48 -69 -76 -1 -25 -1 -25 -15 7 -8 18 -19 30 -24 27 -6 -4 -9 -1 -8 6 2
7 -13 20 -32 30 l-34 16 32 8 c38 8 62 38 62 78 0 16 4 26 10 22 6 -3 10 -17
10 -31z m-2443 -63 c141 -66 235 -160 309 -308 32 -62 37 -84 42 -164 3 -59 1
-90 -5 -86 -5 3 -10 -6 -10 -23 0 -35 -35 -89 -77 -118 -76 -51 -225 -47 -343
9 -74 35 -189 147 -242 235 -71 116 -98 255 -67 338 19 49 61 100 75 91 5 -3
13 0 17 6 4 8 3 9 -4 5 -7 -4 -12 -5 -12 -2 0 7 56 36 90 47 52 17 155 3 227
-30z m217 -13 c-4 -6 -2 -8 3 -5 10 6 48 -25 81 -67 12 -15 10 -16 -12 -12
-14 3 -31 8 -38 12 -8 5 -7 0 2 -12 14 -17 13 -18 -1 -7 -9 7 -19 10 -23 6 -4
-4 -3 4 3 19 8 21 7 29 -7 40 -15 11 -16 11 -4 -3 10 -13 9 -19 -3 -29 -9 -8
-15 -9 -13 -3 2 6 -8 20 -22 31 -14 12 -19 21 -12 22 6 0 12 -5 12 -11 0 -5 5
-7 10 -4 6 4 8 11 5 16 -8 12 4 31 16 23 5 -3 6 -10 3 -16z m2442 -43 c13 -12
12 -15 -4 -24 -25 -13 -46 5 -29 25 15 17 16 17 33 -1z m-2015 -115 c28 -11
31 -14 14 -17 -30 -7 -46 -24 -62 -62 l-14 -33 -21 41 c-13 26 -29 43 -44 47
-32 8 -30 16 9 34 21 10 35 26 41 47 l10 32 17 -38 c12 -27 27 -42 50 -51z
m-321 39 c-5 -8 -17 -22 -27 -30 -17 -13 -17 -13 0 7 22 26 22 41 0 23 -9 -8
-14 -9 -10 -2 4 6 1 13 -5 16 -7 2 1 4 19 3 25 -1 30 -4 23 -17z m2446 -38
c-4 -5 -13 -8 -22 -4 -11 4 -12 8 -3 20 14 16 36 2 25 -16z m-2415 2 c8 -10 9
-14 2 -10 -7 4 -16 0 -22 -10 -11 -20 -15 -4 -5 21 8 20 8 20 25 -1z m21 -41
c-3 -10 -1 -13 6 -8 7 4 12 5 12 2 0 -15 -20 -14 -29 2 -7 14 -6 19 4 19 7 0
11 -7 7 -15z m507 -38 c-8 -10 -14 -10 -23 -1 -18 16 3 40 22 25 9 -8 9 -14 1
-24z m-511 -29 c-3 -3 -9 2 -12 12 -6 14 -5 15 5 6 7 -7 10 -15 7 -18z m338
-77 c-9 -5 -16 -17 -17 -26 0 -13 -3 -12 -11 5 -6 12 -18 24 -27 26 -12 4 -11
6 7 12 12 4 22 14 22 21 0 10 7 7 21 -7 20 -20 20 -23 5 -31z m121 -89 c9 -23
17 -30 28 -25 9 3 13 2 10 -4 -3 -6 1 -10 9 -10 27 0 17 -18 -14 -25 -16 -4
-32 -15 -35 -26 -8 -23 -21 -25 -29 -4 -3 8 -20 24 -38 35 -21 12 -27 20 -16
20 9 0 23 9 31 20 8 11 17 17 20 13 4 -3 7 3 7 15 0 32 14 27 27 -9z m2100
-186 c0 -10 -6 -23 -13 -30 -15 -15 -28 -17 -19 -4 3 6 -3 14 -12 20 -17 10
-17 10 0 11 9 0 17 5 17 10 0 6 6 10 13 10 8 0 14 -8 14 -17z m-680 -6 c0 -8
-6 -14 -14 -14 -9 0 -10 4 -2 14 6 7 12 13 14 13 1 0 2 -6 2 -13z m-1333 -39
c-5 -8 -2 -9 9 -5 9 3 19 1 23 -5 5 -7 2 -8 -6 -3 -8 5 -11 4 -6 -3 4 -6 12
-9 20 -6 7 3 13 -2 13 -10 0 -8 -5 -12 -10 -9 -6 4 -8 0 -4 -10 4 -11 2 -14
-9 -10 -7 3 -14 11 -14 18 0 8 -4 17 -10 20 -5 3 -8 0 -7 -7 2 -7 2 -10 0 -5
-3 4 -10 4 -15 1 -7 -4 -8 -2 -4 4 7 11 -5 16 -31 13 -6 -1 -14 2 -17 7 -3 5
8 8 24 6 16 -2 32 1 35 6 3 6 8 10 11 10 3 0 2 -5 -2 -12z m66 2 c0 -5 -5 -10
-11 -10 -5 0 -7 5 -4 10 3 6 8 10 11 10 2 0 4 -4 4 -10z m-456 -28 c2 -4 -4
-8 -14 -8 -10 0 -16 4 -14 8 3 4 9 8 14 8 5 0 11 -4 14 -8z m7 -39 c12 -16 12
-17 -2 -6 -9 7 -19 10 -22 6 -4 -3 -7 -1 -7 5 0 17 16 15 31 -5z m-213 -30
c-2 -20 -13 -33 -38 -45 -19 -10 -29 -18 -22 -18 25 0 71 30 77 50 9 29 29 19
33 -16 3 -34 -27 -69 -69 -79 -33 -8 -71 22 -75 61 -2 25 3 32 39 50 56 28 59
28 55 -3z m87 7 c3 -6 -1 -7 -9 -4 -18 7 -21 14 -7 14 6 0 13 -4 16 -10z
m-474 -9 c-11 -7 -10 -10 5 -14 12 -3 8 -4 -8 -4 -16 1 -28 4 -28 8 0 10 13
19 29 19 13 0 14 -2 2 -9z m2753 -24 c10 -9 12 -17 6 -17 -6 0 -8 -5 -5 -10 5
-8 11 -7 21 1 10 8 14 8 14 0 0 -6 -6 -11 -12 -11 -9 0 -8 -4 2 -10 11 -7 11
-10 2 -10 -7 0 -23 11 -36 25 -13 14 -33 25 -44 25 -11 0 -24 5 -27 10 -4 7 3
8 21 4 18 -5 25 -3 20 4 -10 16 19 8 38 -11z m293 1 c-3 -8 -6 -5 -6 6 -1 11
2 17 5 13 3 -3 4 -12 1 -19z m-3212 -30 c-1 -12 -7 -23 -14 -24 -6 -1 -7 0 -1
3 5 2 8 9 4 14 -3 5 -2 14 1 19 9 15 12 12 10 -12z m3181 -25 c-3 -18 -43 -26
-53 -10 -7 11 9 22 36 24 12 1 18 -4 17 -14z m-2532 -68 c4 -10 -1 -28 -9 -42
-22 -33 -75 -29 -92 7 -21 45 -20 65 4 68 12 2 27 9 33 17 9 11 15 9 34 -10
13 -13 26 -31 30 -40z m9 38 c-7 -2 -19 -2 -25 0 -7 3 -2 5 12 5 14 0 19 -2
13 -5z m-193 -12 c0 -6 -4 -12 -8 -15 -5 -3 -9 1 -9 9 0 8 4 15 9 15 4 0 8 -4
8 -9z m2968 -69 c-7 -10 -14 -19 -15 -21 -3 -4 2 28 6 47 1 2 6 0 11 -3 8 -5
7 -12 -2 -23z m-2761 -229 c29 -46 51 -83 48 -83 -3 0 -35 45 -71 100 -36 55
-70 103 -75 106 -5 3 -9 11 -9 17 0 17 47 -43 107 -140z"/>
<path d="M2445 4353 c11 -3 35 -21 53 -41 l34 -37 -32 43 c-21 28 -39 42 -53
41 -21 -1 -21 -2 -2 -6z"/>
<path d="M2353 4275 c0 -38 2 -53 4 -32 2 20 2 52 0 70 -2 17 -4 1 -4 -38z"/>
<path d="M2530 4266 c0 -2 8 -10 18 -17 15 -13 16 -12 3 4 -13 16 -21 21 -21
13z"/>
<path d="M2560 4220 c0 -5 5 -10 11 -10 5 0 7 5 4 10 -3 6 -8 10 -11 10 -2 0
-4 -4 -4 -10z"/>
<path d="M2351 4174 c0 -11 3 -14 6 -6 3 7 2 16 -1 19 -3 4 -6 -2 -5 -13z"/>
<path d="M2760 4019 c-12 -8 -10 -9 9 -4 15 5 27 2 33 -6 8 -11 9 -11 5 1 -5
19 -27 23 -47 9z"/>
<path d="M2710 4001 c0 -6 5 -13 12 -17 6 -4 8 -3 4 4 -3 5 0 13 6 15 8 3 6 6
-4 6 -10 1 -18 -3 -18 -8z"/>
<path d="M3502 3810 c0 -14 2 -19 5 -12 2 6 2 18 0 25 -3 6 -5 1 -5 -13z"/>
<path d="M3592 3760 c0 -14 2 -19 5 -12 2 6 2 18 0 25 -3 6 -5 1 -5 -13z"/>
<path d="M3732 3705 c0 -16 2 -22 5 -12 2 9 2 23 0 30 -3 6 -5 -1 -5 -18z"/>
<path d="M3732 3635 c0 -16 2 -22 5 -12 2 9 2 23 0 30 -3 6 -5 -1 -5 -18z"/>
<path d="M574 4053 c-24 -49 -24 -168 0 -236 49 -138 171 -279 296 -342 67
-34 85 -39 166 -43 72 -3 98 -1 125 13 36 18 109 83 109 97 0 4 -17 -9 -38
-30 -54 -54 -135 -79 -213 -64 -165 30 -324 171 -400 350 -35 84 -47 186 -30
246 14 52 8 56 -15 9z"/>
<path d="M940 3993 c89 -66 149 -142 175 -221 10 -29 20 -51 22 -48 9 9 -26
98 -58 147 -31 48 -76 90 -134 123 -30 17 -30 17 -5 -1z"/>
<path d="M1132 3680 c-1 -19 -5 -46 -7 -60 l-6 -25 11 25 c6 13 9 40 7 60 l-4
35 -1 -35z"/>
<path d="M1099 3573 c-13 -16 -12 -17 4 -4 9 7 17 15 17 17 0 8 -8 3 -21 -13z"/>
<path d="M1211 4090 c14 -31 19 -36 19 -24 0 6 -7 19 -16 30 -14 18 -14 18 -3
-6z"/>
<path d="M3610 3361 c0 -6 4 -13 10 -16 6 -3 7 1 4 9 -7 18 -14 21 -14 7z"/>
<path d="M875 4237 c22 -8 63 -26 92 -40 29 -15 56 -27 60 -27 9 0 -15 25 -25
25 -4 1 -29 11 -57 24 -27 12 -63 24 -80 27 -23 3 -21 1 10 -9z"/>
<path d="M3978 4143 c12 -2 32 -2 45 0 12 2 2 4 -23 4 -25 0 -35 -2 -22 -4z"/>
<path d="M3896 4105 c-39 -39 -53 -96 -42 -168 8 -53 49 -138 78 -163 23 -19
23 -19 7 1 -94 115 -102 289 -16 344 18 11 27 21 20 21 -7 0 -28 -16 -47 -35z"/>
<path d="M4135 4090 c10 -11 20 -20 23 -20 3 0 -3 9 -13 20 -10 11 -20 20 -23
20 -3 0 3 -9 13 -20z"/>
<path d="M2117 4019 c7 -7 15 -10 18 -7 3 3 -2 9 -12 12 -14 6 -15 5 -6 -5z"/>
<path d="M2003 3950 c0 -30 2 -43 4 -27 2 15 2 39 0 55 -2 15 -4 2 -4 -28z"/>
<path d="M4281 3874 c0 -11 3 -14 6 -6 3 7 2 16 -1 19 -3 4 -6 -2 -5 -13z"/>
<path d="M2196 3837 c3 -10 9 -15 12 -12 3 3 0 11 -7 18 -10 9 -11 8 -5 -6z"/>
<path d="M4293 3805 c0 -27 2 -38 4 -22 2 15 2 37 0 50 -2 12 -4 0 -4 -28z"/>
<path d="M2510 3756 c0 -3 14 -12 30 -21 17 -9 30 -13 30 -11 0 3 -13 12 -30
21 -16 9 -30 13 -30 11z"/>
<path d="M3953 3742 c4 -6 22 -21 39 -34 17 -12 28 -17 25 -10 -4 6 -22 21
-39 34 -17 12 -28 17 -25 10z"/>
<path d="M4281 3738 c-1 -10 -14 -32 -29 -49 -38 -42 -108 -51 -176 -21 -25
12 -46 19 -46 16 0 -3 19 -14 43 -24 52 -24 108 -25 153 -4 35 17 69 66 60 87
-2 7 -5 4 -5 -5z"/>
<path d="M2600 3706 c0 -3 9 -10 20 -16 11 -6 20 -8 20 -6 0 3 -9 10 -20 16
-11 6 -20 8 -20 6z"/>
<path d="M2740 3686 c0 -3 9 -10 20 -16 11 -6 20 -8 20 -6 0 3 -9 10 -20 16
-11 6 -20 8 -20 6z"/>
<path d="M2740 3636 c0 -3 9 -10 20 -16 11 -6 20 -8 20 -6 0 3 -9 10 -20 16
-11 6 -20 8 -20 6z"/>
<path d="M2810 3596 c0 -3 9 -10 20 -16 11 -6 20 -8 20 -6 0 3 -9 10 -20 16
-11 6 -20 8 -20 6z"/>
<path d="M2920 3535 c0 -2 23 -16 50 -30 28 -14 50 -23 50 -20 0 2 -22 16 -50
30 -27 14 -50 23 -50 20z"/>
<path d="M4127 3513 c-14 -13 -6 -23 34 -43 32 -17 44 -19 55 -9 20 16 18 22
-15 42 -30 17 -63 22 -74 10z"/>
<path d="M3030 3476 c0 -3 9 -10 20 -16 11 -6 20 -8 20 -6 0 3 -9 10 -20 16
-11 6 -20 8 -20 6z"/>
<path d="M2361 3451 c-10 -7 -7 -9 12 -8 14 1 23 5 20 10 -6 9 -15 9 -32 -2z"/>
<path d="M4126 3438 c-14 -20 -14 -24 1 -41 11 -11 17 -33 16 -57 -1 -22 3
-43 9 -46 7 -5 9 0 6 14 -4 12 -3 20 2 17 4 -2 16 20 28 51 16 45 17 53 4 42
-13 -11 -15 -10 -9 4 4 12 0 21 -13 28 -25 14 -27 13 -44 -12z"/>
<path d="M2278 3414 c-23 -12 -28 -21 -27 -52 1 -20 3 -29 6 -19 3 11 10 16
19 13 41 -17 46 -16 17 3 -18 11 -33 24 -33 29 0 5 15 16 33 25 17 8 28 16 22
16 -5 0 -22 -7 -37 -15z"/>
<path d="M2460 3416 c0 -2 8 -10 18 -17 15 -13 16 -12 3 4 -13 16 -21 21 -21
13z"/>
<path d="M2380 3400 c0 -6 -3 -10 -7 -9 -5 1 -19 -2 -32 -6 l-23 -8 23 -13
c32 -18 40 -17 69 9 14 12 23 21 21 20 -1 -1 -14 2 -27 7 -15 6 -24 6 -24 0z"/>
<path d="M3261 3406 c2 -2 15 -9 29 -15 24 -11 24 -11 6 3 -16 13 -49 24 -35
12z"/>
<path d="M3190 3396 c0 -3 9 -10 20 -16 11 -6 20 -8 20 -6 0 3 -9 10 -20 16
-11 6 -20 8 -20 6z"/>
<path d="M2422 3350 c-29 -17 -57 -28 -62 -25 -6 3 -7 -1 -4 -9 7 -18 24 -22
24 -5 0 5 4 8 10 4 5 -3 18 2 28 12 27 26 62 28 62 3 0 -11 -6 -20 -14 -20 -7
0 -30 -12 -51 -26 -43 -29 -63 -27 -118 10 l-37 25 2 -42 c1 -35 2 -37 5 -11
l4 32 45 -25 c40 -23 44 -28 44 -64 0 -45 -3 -46 -37 -19 -15 11 -28 18 -31
15 -3 -3 4 -12 16 -21 34 -23 46 -52 30 -72 -9 -11 -10 -14 0 -8 9 6 12 -28
12 -153 0 -89 4 -161 9 -161 9 0 259 135 303 164 l25 16 56 -87 c30 -49 67
-110 82 -138 16 -27 58 -97 95 -155 37 -58 86 -138 109 -178 l42 -73 2 -297
c2 -274 3 -297 20 -300 16 -3 17 16 17 286 0 331 -11 295 110 359 73 39 147
80 315 177 44 25 83 46 87 46 3 0 9 -12 11 -27 3 -23 4 -21 6 9 0 20 5 40 11
43 6 4 11 -63 13 -182 l2 -188 3 192 c2 171 4 193 20 202 16 9 15 13 -8 57
-14 26 -38 68 -54 93 -102 158 -183 290 -210 342 -41 79 -27 81 -204 -25 -89
-53 -164 -96 -169 -96 -4 0 28 22 72 48 l80 47 -79 9 c-67 7 -84 6 -110 -8
-19 -11 -24 -12 -13 -3 16 13 14 15 -22 24 -22 6 -52 9 -67 7 -16 -1 -31 1
-34 6 -3 5 -15 4 -27 -3 -11 -7 -31 -18 -44 -25 l-24 -13 24 19 23 19 -68 11
c-55 9 -71 9 -84 -2 -8 -7 -22 -16 -30 -20 -8 -4 -4 2 10 13 l25 21 -35 1
c-86 5 -124 8 -137 13 -12 5 -14 24 -11 96 2 56 -1 90 -7 90 -5 0 -34 -14 -63
-30z m333 -246 c-24 -18 -83 -50 -73 -39 10 10 81 54 88 54 3 0 -4 -7 -15 -15z
m215 1 c0 -2 -10 -9 -22 -15 -22 -11 -22 -10 -4 4 21 17 26 19 26 11z m-50
-30 c0 -2 -13 -11 -30 -20 -38 -19 -40 -11 -2 9 31 17 32 18 32 11z m-415 -15
c-3 -5 -12 -10 -18 -10 -7 0 -6 4 3 10 19 12 23 12 15 0z m165 -5 c0 -2 -10
-9 -22 -15 -22 -11 -22 -10 -4 4 21 17 26 19 26 11z m-70 -40 c0 -2 -13 -11
-30 -20 -38 -19 -40 -11 -2 9 31 17 32 18 32 11z m400 -10 c0 -2 -10 -9 -22
-15 -22 -11 -22 -10 -4 4 21 17 26 19 26 11z m-470 -30 c0 -2 -13 -11 -30 -20
-38 -19 -40 -11 -2 9 31 17 32 18 32 11z m540 -30 c0 -2 -10 -9 -22 -15 -22
-11 -22 -10 -4 4 21 17 26 19 26 11z m-610 -10 c0 -2 -10 -9 -22 -15 -22 -11
-22 -10 -4 4 21 17 26 19 26 11z m640 -905 c0 -180 -4 -280 -10 -280 -6 0 -10
98 -10 273 0 241 3 287 17 287 2 0 3 -126 3 -280z"/>
<path d="M4122 3350 c0 -19 2 -27 5 -17 2 9 2 25 0 35 -3 9 -5 1 -5 -18z"/>
<path d="M4511 3366 c-8 -10 -9 -16 -1 -21 5 -3 10 -5 11 -3 4 18 7 38 4 38
-1 0 -8 -6 -14 -14z"/>
<path d="M4556 3347 c-5 -25 -11 -35 -19 -31 -7 4 -9 3 -4 -1 4 -5 -1 -18 -10
-29 -9 -12 0 -5 20 15 32 30 36 39 29 59 -8 23 -9 22 -16 -13z"/>
<path d="M3240 3365 c0 -2 18 -14 40 -25 22 -11 40 -18 40 -15 0 2 -18 14 -40
25 -22 11 -40 18 -40 15z"/>
<path d="M4592 3330 c-12 -16 -22 -37 -22 -46 0 -27 26 2 35 39 5 22 9 27 12
14 2 -9 -1 -33 -7 -51 -9 -28 -15 -34 -32 -31 -21 4 -21 4 -5 -12 22 -22 32
-11 48 49 17 62 2 81 -29 38z"/>
<path d="M604 3315 c-10 -20 -9 -22 5 -17 13 5 14 3 4 -10 -7 -8 -10 -18 -6
-22 4 -4 0 -4 -8 -1 -19 7 -34 -31 -15 -39 6 -2 3 -5 -6 -5 -15 -1 -24 -20
-15 -36 1 -2 -7 -11 -18 -20 -11 -8 14 1 56 21 76 37 77 37 68 68 -21 73 -48
98 -65 61z m13 -111 c-27 -14 -51 -23 -53 -21 -6 5 77 47 91 47 6 -1 -12 -12
-38 -26z"/>
<path d="M4303 3328 c-6 -7 -17 -28 -26 -47 -15 -31 -15 -32 0 -20 15 12 16
12 10 -4 -4 -10 -7 -21 -7 -23 0 -3 -4 -3 -9 0 -5 3 -12 -1 -15 -10 -6 -16 6
-12 36 13 15 13 18 12 32 -14 10 -18 15 -22 16 -11 0 9 -4 19 -10 23 -5 3 -7
12 -4 20 4 8 10 13 14 10 4 -3 11 2 14 11 9 24 8 27 -12 22 -12 -4 -18 1 -18
13 0 14 3 15 13 7 10 -8 12 -7 7 6 -7 19 -28 21 -41 4z"/>
<path d="M450 3290 c-6 -11 -8 -20 -6 -20 3 0 10 9 16 20 6 11 8 20 6 20 -3 0
-10 -9 -16 -20z"/>
<path d="M3355 3303 c6 -6 42 -27 80 -48 39 -21 66 -34 60 -28 -5 6 -41 27
-80 48 -38 21 -65 34 -60 28z"/>
<path d="M3760 3299 c0 -5 5 -7 10 -4 6 3 10 8 10 11 0 2 -4 4 -10 4 -5 0 -10
-5 -10 -11z"/>
<path d="M470 3269 c-7 -11 -10 -23 -7 -25 2 -2 9 7 15 21 14 30 7 33 -8 4z"/>
<path d="M758 3274 c-38 -20 -36 -28 2 -9 17 9 30 18 30 20 0 7 -1 6 -32 -11z"/>
<path d="M2120 3285 c0 -2 18 -14 40 -25 22 -11 40 -18 40 -15 0 2 -18 14 -40
25 -22 11 -40 18 -40 15z"/>
<path d="M3730 3236 c0 -2 7 -7 16 -10 8 -3 12 -2 9 4 -6 10 -25 14 -25 6z"/>
<path d="M446 3215 c-3 -9 -6 -24 -5 -33 0 -9 5 -4 10 12 9 32 6 48 -5 21z"/>
<path d="M1050 3225 c0 -19 15 -30 41 -30 14 0 26 5 26 12 0 8 -9 10 -25 6
-15 -3 -27 -1 -33 8 -5 8 -9 10 -9 4z"/>
<path d="M4653 3219 c-6 -6 -31 -10 -56 -8 -25 2 -43 1 -40 -3 8 -14 90 -9
103 7 14 17 9 20 -7 4z"/>
<path d="M2250 3216 c0 -2 7 -7 16 -10 8 -3 12 -2 9 4 -6 10 -25 14 -25 6z"/>
<path d="M4282 3190 l-22 -30 25 2 c23 2 37 18 15 18 -5 0 -7 7 -4 15 4 8 11
12 17 8 6 -3 7 -1 3 5 -10 16 -9 16 -34 -18z"/>
<path d="M3545 3203 c6 -6 46 -29 90 -53 44 -24 76 -38 70 -33 -5 6 -46 30
-90 53 -44 24 -75 39 -70 33z"/>
<path d="M4542 3194 c9 -9 21 -15 27 -13 6 2 -2 10 -17 17 -25 11 -25 11 -10
-4z"/>
<path d="M4643 3177 c-17 -18 -45 -42 -61 -54 -29 -22 -29 -22 -61 -2 -40 24
-44 24 -31 -1 6 -11 16 -17 25 -14 8 4 15 2 15 -4 0 -5 11 -12 24 -14 17 -3
23 0 22 11 0 9 14 23 31 32 45 22 60 36 66 59 3 11 4 20 4 20 -1 -1 -16 -15
-34 -33z"/>
<path d="M411 3184 c0 -11 3 -14 6 -6 3 7 2 16 -1 19 -3 4 -6 -2 -5 -13z"/>
<path d="M4026 3186 c3 -9 12 -16 19 -16 8 0 16 -9 20 -19 5 -16 9 -17 29 -8
31 15 24 31 -15 34 -17 1 -38 8 -45 14 -12 10 -13 9 -8 -5z"/>
<path d="M4229 3185 c-34 -18 -44 -45 -24 -62 8 -7 10 -8 5 -1 -13 16 -13 31
0 23 6 -3 10 0 10 7 0 10 3 9 11 -2 9 -12 10 -12 5 4 -4 12 0 24 11 32 23 17
15 17 -18 -1z"/>
<path d="M4335 3180 c-3 -5 -1 -10 4 -10 6 0 11 5 11 10 0 6 -2 10 -4 10 -3 0
-8 -4 -11 -10z"/>
<path d="M667 3170 c18 -4 41 -14 50 -21 15 -11 15 -10 -1 9 -13 15 -29 22
-50 21 l-31 -1 32 -8z"/>
<path d="M926 3143 c-6 -14 -5 -15 5 -6 7 7 10 15 7 18 -3 3 -9 -2 -12 -12z"/>
<path d="M1195 3150 c3 -5 8 -10 11 -10 2 0 4 5 4 10 0 6 -5 10 -11 10 -5 0
-7 -4 -4 -10z"/>
<path d="M4330 3148 c0 -9 -6 -19 -12 -21 -10 -4 -10 -6 0 -6 14 -1 28 26 18
36 -3 4 -6 -1 -6 -9z"/>
<path d="M488 3134 c-38 -20 -36 -28 2 -9 17 9 30 18 30 20 0 7 -1 6 -32 -11z"/>
<path d="M428 3117 c-3 -15 -2 -27 3 -27 13 0 17 14 9 35 -6 17 -7 16 -12 -8z"/>
<path d="M4105 3130 c3 -5 8 -10 11 -10 2 0 4 5 4 10 0 6 -5 10 -11 10 -5 0
-7 -4 -4 -10z"/>
<path d="M400 3111 c0 -10 -10 -26 -22 -35 -23 -16 -23 -16 5 -4 18 8 27 19
27 35 0 12 -2 23 -5 23 -3 0 -5 -8 -5 -19z"/>
<path d="M4130 3120 c0 -5 5 -10 10 -10 6 0 10 5 10 10 0 6 -4 10 -10 10 -5 0
-10 -4 -10 -10z"/>
<path d="M948 3088 c52 -42 57 -55 30 -79 l-23 -20 23 11 c40 20 38 39 -9 81
-24 21 -48 38 -53 39 -4 0 10 -15 32 -32z"/>
<path d="M4428 3102 c-14 -20 -48 -36 -48 -24 0 4 -13 13 -30 19 -27 10 -29
10 -20 -7 5 -9 6 -21 2 -25 -4 -5 -1 -5 6 -1 7 4 12 1 12 -7 0 -8 7 -20 15
-27 12 -10 15 -7 21 14 9 39 30 32 25 -9 -1 -5 5 -2 12 7 13 16 15 16 32 0 16
-15 17 -15 12 0 -7 21 14 18 37 -5 21 -20 33 -23 17 -3 -8 10 -9 16 -1 21 20
12 0 22 -39 20 -35 -2 -39 0 -36 21 3 29 0 30 -17 6z"/>
<path d="M517 3066 c-14 -26 -24 -46 -21 -46 7 0 56 82 51 86 -3 3 -16 -15
-30 -40z"/>
<path d="M4475 3090 c3 -5 11 -10 16 -10 6 0 7 5 4 10 -3 6 -11 10 -16 10 -6
0 -7 -4 -4 -10z"/>
<path d="M2332 2894 c-2 -208 -8 -236 -42 -214 -13 9 -13 10 0 10 8 1 2 7 -15
14 -16 7 -31 9 -33 5 -2 -5 -53 16 -114 47 -60 30 -112 54 -114 52 -1 -2 64
-37 146 -78 82 -41 151 -82 154 -90 2 -9 4 -6 5 7 0 12 11 39 23 59 12 21 17
34 10 30 -9 -5 -12 38 -15 176 l-2 183 -3 -201z"/>
<path d="M4270 3078 c0 -9 4 -19 10 -23 5 -3 6 -13 3 -23 -4 -13 -3 -14 6 -6
9 8 8 18 -4 40 -9 18 -15 23 -15 12z"/>
<path d="M4311 3074 c0 -11 3 -14 6 -6 3 7 2 16 -1 19 -3 4 -6 -2 -5 -13z"/>
<path d="M3780 3076 c0 -3 14 -12 30 -21 17 -9 30 -13 30 -11 0 3 -13 12 -30
21 -16 9 -30 13 -30 11z"/>
<path d="M4060 3070 c-9 -6 -10 -10 -3 -10 6 0 15 5 18 10 8 12 4 12 -15 0z"/>
<path d="M3900 3066 c0 -2 8 -10 18 -17 15 -13 16 -12 3 4 -13 16 -21 21 -21
13z"/>
<path d="M314 3044 c-18 -14 -18 -14 6 -3 31 14 36 19 24 19 -6 0 -19 -7 -30
-16z"/>
<path d="M3700 3002 c0 -48 70 -82 78 -39 6 28 -25 67 -53 67 -21 0 -25 -5
-25 -28z m60 -21 c0 -18 -24 -30 -37 -20 -20 17 -16 27 12 27 14 0 25 -4 25
-7z"/>
<path d="M4448 3018 c5 -5 16 -8 23 -6 8 3 3 7 -10 11 -17 4 -21 3 -13 -5z"/>
<path d="M278 3005 c12 -9 35 -28 52 -43 l30 -28 3 -204 2 -205 2 210 2 210
-44 35 c-25 19 -51 37 -58 39 -6 1 -2 -4 11 -14z"/>
<path d="M3870 2527 l5 -492 3 484 c1 267 -1 488 -5 492 -5 5 -6 -213 -3 -484z"/>
<path d="M3939 2479 c0 -294 -2 -553 -4 -576 -3 -23 -1 -52 5 -65 8 -21 9 -19
8 12 0 19 0 287 1 594 0 308 -2 562 -4 565 -3 2 -5 -236 -6 -530z"/>
<path d="M1210 2976 c0 -2 8 -10 18 -17 15 -13 16 -12 3 4 -13 16 -21 21 -21
13z"/>
<path d="M1316 2945 c17 -42 18 -82 2 -88 -8 -3 -6 -6 5 -6 9 -1 17 -9 17 -19
0 -13 8 -18 28 -17 26 0 27 -1 26 -53 -2 -55 -18 -86 -41 -78 -7 3 -13 -1 -13
-9 0 -8 -8 -20 -18 -27 -28 -20 -33 -34 -11 -34 10 0 19 6 19 12 0 24 25 34
60 24 42 -12 56 -3 34 21 -9 10 -14 25 -11 34 4 8 3 15 -1 15 -4 0 -6 18 -4
40 4 44 -10 70 -38 70 -21 0 -30 19 -30 61 0 27 -24 89 -35 89 -2 0 3 -16 11
-35z m79 -275 c-3 -5 -12 -10 -18 -10 -7 0 -6 4 3 10 19 12 23 12 15 0z"/>
<path d="M264 2790 c0 -102 2 -143 3 -92 2 50 2 134 0 185 -1 50 -3 9 -3 -93z"/>
<path d="M910 2880 l0 -90 -37 -19 c-21 -11 -33 -20 -28 -21 6 0 24 9 42 19
31 20 32 21 35 110 2 50 0 91 -4 91 -5 0 -8 -40 -8 -90z"/>
<path d="M1043 2955 c-3 -9 -3 -19 1 -22 3 -4 6 1 6 10 0 21 18 22 50 1 l25
-16 -24 21 c-28 25 -49 27 -58 6z"/>
<path d="M1770 2799 c0 -95 3 -170 6 -166 3 3 5 76 5 162 l-2 156 53 -27 c29
-14 54 -27 56 -29 1 -1 -2 -15 -8 -31 -7 -19 -7 -39 0 -59 10 -29 10 -29 6 8
-6 44 5 47 64 17 22 -11 43 -20 47 -20 4 1 -18 15 -51 31 -40 21 -55 34 -48
41 7 7 32 -2 79 -28 37 -20 64 -32 58 -26 -5 6 -67 41 -137 77 l-128 67 0
-173z"/>
<path d="M1271 2902 c-1 -39 -5 -61 -11 -57 -5 3 -10 2 -10 -4 0 -16 18 -22
26 -9 12 18 13 47 4 93 -7 37 -8 36 -9 -23z"/>
<path d="M4211 2957 c2 -1 13 -9 24 -17 19 -14 19 -14 6 3 -7 9 -18 17 -24 17
-6 0 -8 -1 -6 -3z"/>
<path d="M4265 2940 c-3 -6 1 -7 9 -4 18 7 21 14 7 14 -6 0 -13 -4 -16 -10z"/>
<path d="M1052 2890 c0 -19 2 -27 5 -17 2 9 2 25 0 35 -3 9 -5 1 -5 -18z"/>
<path d="M2634 2894 c-18 -14 -18 -15 4 -4 12 6 22 13 22 15 0 8 -5 6 -26 -11z"/>
<path d="M1174 2849 c13 -31 11 -69 -4 -69 -4 0 -12 15 -18 33 l-10 32 3 -35
c2 -19 8 -49 14 -67 5 -17 7 -34 3 -37 -3 -3 3 -6 13 -6 15 0 16 3 7 12 -18
18 -14 45 8 61 l20 14 -19 47 c-11 25 -22 46 -25 46 -3 0 1 -14 8 -31z"/>
<path d="M2584 2864 c-18 -14 -18 -15 4 -4 12 6 22 13 22 15 0 8 -5 6 -26 -11z"/>
<path d="M1061 2843 c-1 -17 30 -95 36 -90 2 3 -5 26 -16 53 -11 27 -20 43
-20 37z"/>
<path d="M1908 2780 c2 -22 6 -40 8 -40 2 0 4 18 4 40 0 22 -3 40 -8 40 -4 0
-6 -18 -4 -40z"/>
<path d="M2080 2805 c0 -2 23 -16 50 -30 63 -32 66 -25 4 9 -48 27 -54 29 -54
21z"/>
<path d="M2418 2784 c-38 -20 -36 -28 2 -9 17 9 30 18 30 20 0 7 -1 6 -32 -11z"/>
<path d="M1977 2776 c6 -10 114 -59 119 -54 2 2 -26 17 -61 33 -35 17 -61 26
-58 21z"/>
<path d="M2657 2776 c-2 -6 0 -23 5 -38 10 -27 10 -27 40 -12 28 15 29 17 13
34 -20 22 -53 32 -58 16z"/>
<path d="M2720 2786 c0 -2 8 -10 18 -17 15 -13 16 -12 3 4 -13 16 -21 21 -21
13z"/>
<path d="M1493 2772 c-8 -5 -9 -13 -3 -22 8 -13 10 -12 10 2 0 9 10 19 23 21
19 4 19 4 2 5 -11 1 -25 -2 -32 -6z"/>
<path d="M2629 2760 c-9 -61 3 -83 28 -55 5 4 2 5 -6 0 -11 -6 -13 -4 -8 8 3
9 2 27 -3 39 -6 15 -9 18 -11 8z"/>
<path d="M1260 2740 c6 -11 13 -20 16 -20 2 0 0 9 -6 20 -6 11 -13 20 -16 20
-2 0 0 -9 6 -20z"/>
<path d="M1434 2749 c-3 -6 -2 -15 3 -20 5 -5 9 -1 9 11 0 23 -2 24 -12 9z"/>
<path d="M1880 2741 c0 -11 -5 -21 -12 -23 -7 -3 -6 -7 5 -11 14 -5 17 -1 17
23 0 17 -2 30 -5 30 -3 0 -5 -9 -5 -19z"/>
<path d="M683 2677 c-78 -39 -140 -73 -139 -75 5 -4 286 136 286 143 0 7 8 11
-147 -68z"/>
<path d="M1013 2743 c9 -2 23 -2 30 0 6 3 -1 5 -18 5 -16 0 -22 -2 -12 -5z"/>
<path d="M1600 2741 c-8 -6 -19 -7 -25 -5 -5 3 -3 0 6 -8 22 -18 50 -74 41
-83 -4 -5 -1 -5 6 -1 7 4 12 28 12 57 0 50 -9 59 -40 40z"/>
<path d="M962 2728 c2 -6 15 -18 29 -26 23 -14 23 -14 4 3 -11 9 -19 21 -17
26 1 5 -3 9 -9 9 -6 0 -9 -5 -7 -12z"/>
<path d="M1102 2730 c14 -4 32 -11 40 -15 7 -3 4 1 -6 9 -11 9 -29 16 -40 15
-17 -1 -16 -2 6 -9z"/>
<path d="M1950 2726 c0 -2 7 -7 16 -10 8 -3 12 -2 9 4 -6 10 -25 14 -25 6z"/>
<path d="M1910 2653 c0 -39 -4 -73 -10 -75 -5 -1 41 -30 103 -62 61 -33 109
-55 105 -51 -5 5 -47 29 -95 55 l-88 47 -1 72 c-2 94 -14 106 -14 14z"/>
<path d="M2124 2705 c11 -8 24 -15 29 -15 5 0 7 -16 5 -35 -2 -19 0 -35 4 -35
4 0 8 16 8 35 0 29 -5 37 -32 50 -29 14 -31 14 -14 0z"/>
<path d="M2711 2707 c-28 -14 -43 -44 -18 -34 9 3 19 1 23 -5 5 -7 2 -8 -7 -4
-8 4 -5 0 6 -8 21 -18 41 -16 39 2 -1 7 -2 23 -2 37 -2 28 -7 30 -41 12z"/>
<path d="M4245 2706 c-96 -27 -164 -80 -198 -154 -31 -66 -30 -211 1 -297 44
-120 139 -234 243 -290 68 -37 80 -40 151 -40 47 0 82 5 89 12 10 10 4 10 -27
2 -98 -28 -225 22 -321 124 -78 84 -110 140 -135 240 -18 71 -20 92 -11 153 6
40 19 89 29 110 22 45 102 104 143 105 21 0 23 2 7 8 -14 5 -5 10 34 19 69 16
98 15 159 -5 44 -14 49 -18 38 -32 -10 -14 -10 -14 4 -3 14 11 21 9 45 -13 18
-17 22 -25 12 -21 -10 3 -17 2 -15 -2 1 -4 -2 -8 -8 -9 -5 -1 -9 6 -7 15 2 14
1 14 -7 3 -7 -12 -13 -12 -24 -3 -7 7 -18 8 -22 4 -5 -4 -5 2 -1 13 5 15 4 17
-4 9 -9 -9 -19 -8 -41 3 -17 8 -49 17 -72 19 -40 4 -39 4 13 -11 77 -22 137
-59 192 -119 55 -59 114 -166 134 -240 33 -124 6 -266 -62 -325 -45 -40 -38
-39 33 3 84 51 123 122 123 228 0 195 -155 435 -319 493 -50 17 -119 18 -176
1z m297 -125 c-16 -16 -27 -17 -27 -3 0 4 -4 12 -8 19 -10 15 14 22 34 10 15
-10 15 -12 1 -26z"/>
<path d="M1675 2690 c3 -5 11 -10 16 -10 6 0 7 5 4 10 -3 6 -11 10 -16 10 -6
0 -7 -4 -4 -10z"/>
<path d="M1940 2696 c0 -3 9 -10 20 -16 11 -6 20 -8 20 -6 0 3 -9 10 -20 16
-11 6 -20 8 -20 6z"/>
<path d="M1101 2681 c-10 -7 -7 -9 12 -8 14 1 23 5 20 10 -6 9 -15 9 -32 -2z"/>
<path d="M1258 2670 c-10 -10 -13 -22 -8 -25 9 -6 13 -1 23 28 8 22 5 22 -15
-3z"/>
<path d="M1790 2679 c0 -5 5 -7 10 -4 6 3 10 8 10 11 0 2 -4 4 -10 4 -5 0 -10
-5 -10 -11z"/>
<path d="M2190 2556 c0 -100 -3 -124 -13 -120 -7 2 -13 17 -12 32 2 20 1 21
-2 4 -4 -18 -9 -22 -26 -17 -26 8 55 -41 101 -60 17 -8 32 -12 32 -9 0 3 -15
11 -34 19 -29 13 -34 19 -32 42 2 16 4 70 5 121 l1 94 33 -21 32 -20 5 -193 6
-193 1 210 c1 116 -1 205 -3 198 -3 -7 -20 -3 -50 14 l-44 25 0 -126z"/>
<path d="M1159 2661 c11 -7 10 -11 -5 -20 -17 -11 -17 -11 4 -6 21 6 31 -8 13
-19 -5 -3 -11 -15 -14 -26 -4 -17 -3 -19 9 -9 7 6 11 15 8 20 -3 5 6 14 20 20
27 13 42 36 22 36 -6 0 -25 3 -41 7 -19 4 -25 3 -16 -3z"/>
<path d="M1583 2663 c-7 -2 -10 -10 -7 -16 2 -7 -2 -21 -11 -32 -15 -20 -15
-20 -31 0 -12 14 -15 15 -11 4 3 -9 1 -21 -5 -27 -16 -16 -51 5 -44 25 6 13 4
14 -10 3 -13 -12 -17 -11 -25 1 -6 10 -9 8 -9 -11 0 -15 -5 -31 -12 -38 -15
-15 -54 -16 -63 -2 -3 6 -14 10 -23 9 -11 0 -12 -3 -4 -6 17 -7 15 -33 -3 -53
-14 -16 -14 -18 0 -23 8 -4 15 -2 15 3 0 16 97 60 147 66 26 3 55 11 63 18 8
8 21 12 28 10 7 -1 8 0 2 3 -7 3 -4 13 9 27 20 21 16 47 -6 39z"/>
<path d="M2412 2507 c-1 -106 -6 -174 -13 -186 -27 -42 -6 -63 121 -125 67
-32 123 -56 126 -53 3 2 8 21 11 41 5 29 3 36 -11 36 -9 0 -48 16 -86 35 -75
38 -85 41 -74 23 5 -7 3 -8 -5 -4 -7 5 -10 11 -7 14 3 3 -7 13 -23 23 -26 16
-28 21 -26 75 1 32 -1 110 -5 173 l-7 116 -1 -168z m153 -267 c39 -26 25 -26
-17 0 -18 11 -28 20 -23 20 6 0 24 -9 40 -20z"/>
<path d="M2448 2663 c7 -3 16 -2 19 1 4 3 -2 6 -13 5 -11 0 -14 -3 -6 -6z"/>
<path d="M1857 2653 c-18 -5 -18 -6 2 -19 12 -9 21 -22 21 -30 0 -12 -7 -13
-49 -5 -2 1 3 9 10 19 13 15 12 16 -3 4 -14 -11 -15 -17 -5 -32 6 -11 14 -16
17 -12 3 4 12 7 20 7 9 0 16 11 18 28 2 17 -1 27 -10 27 -9 0 -9 3 2 10 16 10
8 11 -23 3z"/>
<path d="M985 2641 c6 -5 24 -13 40 -17 39 -9 30 0 -15 15 -19 6 -30 7 -25 2z"/>
<path d="M2050 2635 c14 -8 30 -14 35 -14 6 0 -1 6 -15 14 -14 8 -29 14 -35
14 -5 0 1 -6 15 -14z"/>
<path d="M1085 2620 c-28 -7 -28 -8 -5 -9 14 0 32 4 40 9 17 11 8 11 -35 0z"/>
<path d="M1704 2545 c0 -49 1 -71 3 -48 2 23 2 64 0 90 -2 26 -3 8 -3 -42z"/>
<path d="M1370 2610 c0 -5 5 -10 11 -10 5 0 7 5 4 10 -3 6 -8 10 -11 10 -2 0
-4 -4 -4 -10z"/>
<path d="M1735 2608 c-2 -7 -5 -45 -7 -84 -3 -60 -1 -71 12 -66 8 3 12 1 7 -3
-8 -10 71 -60 80 -51 4 3 12 1 20 -5 10 -9 13 -5 13 20 0 20 -4 30 -11 26 -6
-4 -16 1 -23 11 -11 15 -9 21 15 45 33 32 34 36 14 36 -8 0 -12 -4 -10 -8 3
-4 -2 -9 -10 -13 -18 -6 -19 -1 -4 25 9 17 7 20 -8 17 -10 -2 -17 2 -15 10 1
6 -2 12 -8 12 -5 0 -10 -9 -10 -21 0 -11 4 -18 9 -14 5 3 12 1 16 -5 3 -5 -2
-10 -12 -11 -10 0 -13 -3 -5 -6 14 -5 17 -33 3 -33 -4 0 -8 -11 -7 -25 0 -14
-2 -25 -6 -25 -5 0 -13 0 -19 0 -5 0 -7 5 -4 10 3 6 -1 18 -11 27 -15 16 -15
17 2 24 14 6 15 8 4 9 -10 1 -9 4 5 10 19 8 19 9 -4 9 -21 1 -23 5 -19 46 3
45 1 56 -7 33z m93 -187 c3 -8 -1 -12 -9 -9 -7 2 -15 10 -17 17 -3 8 1 12 9 9
7 -2 15 -10 17 -17z"/>
<path d="M4223 2613 c9 -2 23 -2 30 0 6 3 -1 5 -18 5 -16 0 -22 -2 -12 -5z"/>
<path d="M4293 2613 c9 -2 23 -2 30 0 6 3 -1 5 -18 5 -16 0 -22 -2 -12 -5z"/>
<path d="M1135 2600 c-4 -6 -10 -8 -14 -5 -5 2 -16 -2 -26 -9 -17 -12 -17 -13
3 -18 16 -4 19 -2 15 10 -4 9 -2 13 4 9 6 -4 16 0 23 8 7 8 10 15 7 15 -3 0
-9 -5 -12 -10z"/>
<path d="M1756 2602 c-3 -6 -1 -14 5 -17 14 -9 20 -2 10 14 -6 8 -11 9 -15 3z"/>
<path d="M280 2596 c0 -2 8 -10 18 -17 15 -13 16 -12 3 4 -13 16 -21 21 -21
13z"/>
<path d="M460 2569 c-61 -34 -68 -39 -54 -39 5 0 36 16 69 35 33 19 56 34 50
34 -5 0 -35 -13 -65 -30z"/>
<path d="M2159 2562 c5 -34 6 -35 9 -8 2 16 0 32 -5 37 -5 5 -7 -7 -4 -29z"/>
<path d="M2613 2583 c11 -12 25 -39 33 -60 7 -21 13 -30 14 -20 0 24 -24 70
-47 88 -17 13 -17 12 0 -8z"/>
<path d="M4129 2569 c-58 -62 -74 -208 -33 -294 8 -16 13 -23 10 -15 -39 152
-28 238 42 313 14 15 22 27 18 27 -4 0 -21 -14 -37 -31z"/>
<path d="M4390 2587 c0 -3 12 -12 26 -22 15 -9 23 -12 20 -6 -7 11 -46 35 -46
28z"/>
<path d="M1670 2561 c0 -11 5 -23 10 -26 6 -3 10 3 10 14 0 11 -4 23 -10 26
-5 3 -10 -3 -10 -14z"/>
<path d="M1060 2546 c0 -8 4 -17 9 -20 5 -4 7 3 4 14 -6 23 -13 26 -13 6z"/>
<path d="M1154 2548 c4 -23 30 -58 44 -58 8 0 10 -5 6 -12 -6 -10 -5 -10 8 -1
8 7 18 10 21 7 12 -13 -5 -24 -36 -24 -24 0 -28 -3 -17 -10 12 -8 12 -10 1
-10 -8 0 -12 -3 -9 -6 3 -3 23 2 43 10 46 20 49 20 41 1 -4 -12 -2 -13 14 -2
30 18 26 45 -5 39 -16 -3 -27 1 -31 11 -3 9 -12 13 -20 10 -8 -3 -21 0 -29 7
-12 10 -13 16 -3 29 7 9 8 13 4 9 -5 -4 -15 -3 -22 3 -9 7 -12 6 -10 -3z"/>
<path d="M1614 2538 c0 -11 4 -14 9 -9 5 5 16 7 23 4 9 -3 12 0 9 9 -8 20 -41
17 -41 -4z"/>
<path d="M1450 2517 c-18 -25 -19 -28 -4 -14 11 9 24 17 27 17 14 0 6 -54 -10
-73 -18 -19 -17 -19 21 -1 25 12 33 20 22 22 -10 2 -16 13 -16 28 0 15 4 23
11 19 6 -4 5 2 -3 14 -16 27 -18 26 -48 -12z"/>
<path d="M1882 2473 c-2 -68 1 -83 13 -83 8 0 15 5 15 11 0 5 -4 8 -10 4 -5
-3 -11 26 -13 72 l-3 78 -2 -82z"/>
<path d="M4450 2546 c0 -2 8 -10 18 -17 15 -13 16 -12 3 4 -13 16 -21 21 -21
13z"/>
<path d="M1115 2519 c-4 -6 -5 -12 -2 -15 2 -3 7 2 10 11 7 17 1 20 -8 4z"/>
<path d="M1928 2490 c2 -22 8 -40 12 -40 10 0 5 59 -7 71 -5 5 -7 -8 -5 -31z"/>
<path d="M1901 2504 c0 -11 3 -14 6 -6 3 7 2 16 -1 19 -3 4 -6 -2 -5 -13z"/>
<path d="M4500 2485 c40 -48 43 -51 32 -30 -6 11 -21 29 -34 40 -22 19 -22 19
2 -10z"/>
<path d="M1030 2496 c0 -2 8 -10 18 -17 15 -13 16 -12 3 4 -13 16 -21 21 -21
13z"/>
<path d="M2752 2358 l2 -143 6 135 6 135 -3 -140 c-1 -77 -2 -194 -2 -260 0
-140 -7 -129 137 -205 60 -32 87 -51 86 -63 -1 -9 2 -17 7 -17 5 0 9 21 10 48
0 26 2 126 4 222 1 96 4 204 5 241 2 36 -2 74 -8 85 -6 10 -12 13 -12 6 0 -9
-7 -11 -22 -7 -20 5 -21 4 -5 -5 9 -6 17 -15 17 -19 0 -4 -36 10 -80 31 -44
22 -78 44 -74 49 3 5 -2 6 -11 3 -9 -4 -14 -12 -12 -18 2 -6 1 -20 -4 -31 -6
-15 -8 -9 -8 22 -1 35 -20 73 -37 73 -2 0 -3 -64 -2 -142z m114 -21 c-2 -29
-5 -64 -5 -79 -1 -16 -5 -28 -11 -28 -6 0 -9 33 -7 84 1 61 5 82 14 79 9 -3
11 -22 9 -56z m56 -9 c-15 -15 -26 -4 -18 18 5 13 9 15 18 6 9 -9 9 -15 0 -24z
m50 -20 c-10 -10 -10 -8 -2 37 1 6 4 2 7 -9 3 -10 0 -23 -5 -28z m-47 -56 c-6
-14 -8 -13 -16 7 -6 16 -5 28 3 39 11 13 13 12 16 -7 2 -12 1 -30 -3 -39z
m-115 -32 c0 -22 -4 -40 -9 -40 -5 0 -9 18 -9 40 0 22 3 40 9 40 5 0 9 -18 9
-40z m110 -22 c0 -5 -4 -8 -10 -8 -5 0 -10 10 -10 23 0 18 2 19 10 7 5 -8 10
-18 10 -22z m24 -47 c11 -4 15 -10 9 -14 -5 -3 -19 0 -29 8 -20 15 -11 18 20
6z m-77 -85 c1 -55 -2 -76 -10 -73 -17 5 -23 137 -5 137 10 0 9 3 -2 11 -13 9
-13 10 0 6 11 -3 15 -22 17 -81z m-70 42 c-3 -8 -6 -5 -6 6 -1 11 2 17 5 13 3
-3 4 -12 1 -19z m131 -73 c2 -63 0 -75 -13 -75 -14 0 -16 12 -13 79 4 100 22
97 26 -4z m-98 -55 c8 -5 11 -10 5 -10 -5 0 -17 5 -25 10 -8 5 -10 10 -5 10 6
0 17 -5 25 -10z m85 -48 c-3 -3 -11 0 -18 7 -9 10 -8 11 6 5 10 -3 15 -9 12
-12z m48 -23 c-8 -8 -13 -7 -18 2 -5 8 -4 10 3 5 7 -4 12 -2 12 5 0 7 3 9 7 6
4 -4 2 -12 -4 -18z"/>
<path d="M3490 2487 c49 -17 60 -46 60 -162 0 -113 9 -100 -107 -162 l-63 -33
0 133 c0 123 2 135 26 177 21 37 22 41 5 26 -11 -10 -27 -40 -36 -67 l-17 -49
-25 20 c-33 26 -73 25 -107 -1 -27 -21 -61 -77 -53 -86 3 -2 9 6 13 19 7 22 7
22 16 3 8 -19 8 -18 4 2 -5 29 35 73 67 73 27 0 66 -33 68 -58 1 -9 3 -56 5
-104 l3 -88 -32 -24 c-37 -27 -91 -56 -106 -56 -6 0 -12 47 -14 118 -2 83 -3
65 -4 -63 -1 -99 3 -202 7 -230 7 -40 8 -27 6 58 -2 88 0 107 12 107 9 0 12
-6 8 -16 -4 -10 -2 -13 6 -8 8 5 9 0 5 -17 -4 -13 -7 -67 -7 -121 l0 -96 -64
-36 c-63 -35 -109 -45 -121 -27 -3 6 -56 35 -118 65 -61 31 -152 78 -202 106
-49 28 -139 76 -199 106 -60 31 -126 66 -147 79 -42 27 -566 308 -592 318 -36
14 -7 -10 47 -38 31 -16 56 -33 56 -37 0 -4 8 -8 18 -8 10 0 22 -4 27 -9 6 -5
80 -45 165 -89 238 -122 265 -137 298 -160 16 -12 35 -22 41 -22 6 0 11 -5 11
-11 0 -5 4 -8 8 -5 5 3 17 -1 28 -8 10 -8 75 -43 144 -79 69 -36 141 -74 160
-86 19 -11 49 -28 65 -37 17 -9 33 -21 36 -26 3 -5 8 -9 10 -7 8 4 78 -25 74
-31 -2 -3 5 -6 15 -7 19 -2 71 -48 64 -57 -2 -3 -1 -4 3 -1 3 3 13 -1 22 -9
14 -13 31 -6 141 55 69 38 128 69 132 69 3 0 9 -8 11 -17 3 -10 4 23 4 72 0
50 -2 71 -4 48 -4 -39 -8 -44 -57 -73 -30 -16 -56 -30 -60 -30 -3 0 -6 44 -6
98 l0 98 33 17 c17 9 66 36 108 59 41 24 102 58 136 76 l60 33 5 87 c10 174
-17 243 -95 241 l-32 0 35 -12z"/>
<path d="M1128 2467 c4 -17 1 -19 -22 -15 -18 4 -24 2 -18 -4 6 -6 18 -8 27
-6 21 4 40 45 20 45 -7 0 -10 -8 -7 -20z"/>
<path d="M1840 2475 c0 -8 4 -15 9 -15 5 0 11 7 15 15 3 9 0 15 -9 15 -8 0
-15 -7 -15 -15z"/>
<path d="M1981 2403 c1 -49 4 -78 6 -65 2 12 10 22 16 22 8 0 7 3 -2 9 -9 6
-12 25 -10 65 2 31 1 56 -3 56 -5 0 -7 -39 -7 -87z"/>
<path d="M2950 2470 c6 -11 13 -20 16 -20 2 0 0 9 -6 20 -6 11 -13 20 -16 20
-2 0 0 -9 6 -20z"/>
<path d="M2018 2473 c8 -3 12 -29 12 -81 0 -42 5 -84 10 -92 7 -10 8 12 4 69
l-7 83 24 -7 c21 -6 20 -4 -6 14 -16 12 -34 21 -40 20 -5 0 -4 -3 3 -6z"/>
<path d="M1680 2440 c0 -27 14 -37 50 -38 l35 0 -35 16 c-19 10 -38 21 -42 27
-5 6 -8 4 -8 -5z"/>
<path d="M2847 2439 c7 -7 15 -10 18 -7 3 3 -2 9 -12 12 -14 6 -15 5 -6 -5z"/>
<path d="M828 2433 c12 -2 32 -2 45 0 12 2 2 4 -23 4 -25 0 -35 -2 -22 -4z"/>
<path d="M1355 2430 c-3 -6 1 -7 9 -4 18 7 21 14 7 14 -6 0 -13 -4 -16 -10z"/>
<path d="M1930 2426 c0 -8 4 -17 9 -20 5 -4 7 3 4 14 -6 23 -13 26 -13 6z"/>
<path d="M2090 2358 c-3 -48 -1 -83 3 -79 4 4 7 43 5 87 l-3 79 -5 -87z"/>
<path d="M768 2423 c7 -3 16 -2 19 1 4 3 -2 6 -13 5 -11 0 -14 -3 -6 -6z"/>
<path d="M918 2423 c6 -2 9 -10 6 -15 -4 -6 -2 -8 3 -5 16 10 75 -49 71 -70
-2 -10 -10 -17 -16 -15 -7 1 -12 -3 -12 -9 0 -6 -7 -8 -16 -5 -8 3 -13 2 -10
-3 3 -5 -1 -12 -10 -15 -9 -3 -12 -2 -9 4 4 6 -18 -2 -49 -17 -30 -14 -53 -30
-51 -33 5 -8 -71 -45 -112 -54 -40 -9 -102 7 -131 34 -34 32 -28 67 20 113 23
22 33 35 22 28 -57 -32 -74 -62 -74 -126 0 -52 8 -63 71 -95 72 -37 107 -31
254 41 l130 65 3 49 c2 27 -2 59 -9 72 -11 21 -71 64 -87 62 -4 0 -1 -3 6 -6z"/>
<path d="M1390 2415 c0 -9 6 -12 15 -9 8 4 15 7 15 9 0 2 -7 5 -15 9 -9 3 -15
0 -15 -9z"/>
<path d="M2900 2415 c14 -8 30 -14 35 -14 6 0 -1 6 -15 14 -14 8 -29 14 -35
14 -5 0 1 -6 15 -14z"/>
<path d="M4210 2421 c0 -5 8 -15 18 -22 15 -13 16 -12 4 3 -10 13 -10 17 0 21
8 4 7 6 -4 6 -10 1 -18 -3 -18 -8z"/>
<path d="M4549 2415 c17 -33 31 -51 31 -40 0 6 -10 21 -21 35 -13 17 -17 18
-10 5z"/>
<path d="M720 2410 c-13 -8 -13 -10 0 -10 10 0 7 -5 -8 -16 -12 -8 -22 -20
-22 -26 0 -7 6 -4 13 5 6 9 23 21 37 26 21 8 22 10 5 11 -17 0 -17 2 -5 10 8
5 11 10 5 10 -5 0 -17 -5 -25 -10z"/>
<path d="M833 2413 c15 -2 37 -2 50 0 12 2 0 4 -28 4 -27 0 -38 -2 -22 -4z"/>
<path d="M1236 2405 c-11 -8 -15 -15 -9 -15 6 0 16 7 23 15 16 19 11 19 -14 0z"/>
<path d="M2138 2361 c5 -100 8 -107 13 -29 2 47 0 79 -6 82 -6 2 -9 -18 -7
-53z"/>
<path d="M3631 2394 c0 -11 3 -14 6 -6 3 7 2 16 -1 19 -3 4 -6 -2 -5 -13z"/>
<path d="M1287 2394 c-3 -3 -3 -12 -1 -19 6 -15 -49 -48 -61 -37 -5 4 -5 2 -1
-5 4 -8 -5 -18 -24 -28 -16 -8 -30 -18 -30 -21 0 -4 150 74 160 84 3 3 -3 2
-12 -1 -16 -6 -23 3 -19 26 1 9 -4 9 -12 1z"/>
<path d="M655 2380 c-3 -6 1 -7 9 -4 18 7 21 14 7 14 -6 0 -13 -4 -16 -10z"/>
<path d="M1934 2374 c4 -12 2 -15 -9 -10 -64 26 -61 19 5 -13 25 -12 38 -16
30 -9 -9 7 -14 21 -12 31 2 9 -2 17 -8 17 -7 0 -9 -7 -6 -16z"/>
<path d="M2162 2370 c0 -14 2 -19 5 -12 2 6 2 18 0 25 -3 6 -5 1 -5 -13z"/>
<path d="M2193 2300 c0 -64 2 -84 7 -60 l7 35 2 -37 c1 -34 5 -40 27 -37 4 0
10 -4 13 -9 6 -9 65 -42 76 -42 3 0 4 19 3 43 l-1 42 -4 -37 c-5 -46 -32 -42
-34 6 l-1 31 -8 -30 -7 -30 -10 25 c-7 17 -7 29 -1 38 7 8 7 12 0 12 -6 0 -10
18 -10 40 0 22 4 40 9 40 15 0 10 19 -8 29 -17 8 -18 2 -15 -76 3 -59 0 -83
-7 -78 -6 3 -11 22 -11 41 0 19 -4 34 -10 34 -5 0 -11 26 -13 58 -2 34 -3 18
-4 -38z"/>
<path d="M4419 2373 c-13 -16 -12 -17 4 -4 9 7 17 15 17 17 0 8 -8 3 -21 -13z"/>
<path d="M1562 2363 c-40 -19 -40 -26 -2 -53 l29 -21 41 21 c22 11 40 22 40
25 0 3 -17 13 -38 24 -35 18 -41 18 -70 4z"/>
<path d="M1373 2299 c-62 -33 -113 -62 -113 -65 0 -6 209 104 225 117 18 17
-1 8 -112 -52z"/>
<path d="M2212 2340 c0 -14 2 -19 5 -12 2 6 2 18 0 25 -3 6 -5 1 -5 -13z"/>
<path d="M4379 2343 c-13 -16 -12 -17 4 -4 16 13 21 21 13 21 -2 0 -10 -8 -17
-17z"/>
<path d="M1387 2272 c-59 -31 -107 -60 -107 -64 0 -4 12 -11 26 -14 15 -4 69
-29 120 -55 51 -27 98 -49 103 -49 12 0 90 52 91 60 0 3 -26 18 -57 34 l-57
28 48 27 47 28 -23 15 c-79 52 -74 52 -191 -10z m133 24 c0 -11 -19 -15 -25
-6 -3 5 1 10 9 10 9 0 16 -2 16 -4z m-135 -86 c3 -5 -1 -10 -9 -10 -8 0 -18 5
-21 10 -3 6 1 10 9 10 8 0 18 -4 21 -10z m120 -30 c-3 -5 -10 -10 -16 -10 -5
0 -9 5 -9 10 0 6 7 10 16 10 8 0 12 -4 9 -10z"/>
<path d="M1653 2304 c-18 -9 -33 -20 -33 -25 0 -10 73 -49 92 -49 7 0 29 10
48 21 l34 21 -44 24 c-54 28 -56 28 -97 8z"/>
<path d="M4485 2300 c-11 -12 -46 -39 -78 -61 -33 -21 -55 -39 -49 -39 6 0 42
23 79 51 82 62 77 58 71 64 -3 3 -13 -4 -23 -15z"/>
<path d="M2160 2269 c0 -17 -4 -28 -10 -24 -5 3 -10 4 -10 1 0 -3 8 -10 18
-15 15 -8 17 -5 14 30 -5 46 -12 52 -12 8z"/>
<path d="M2312 2280 c0 -14 2 -19 5 -12 2 6 2 18 0 25 -3 6 -5 1 -5 -13z"/>
<path d="M4602 2280 c0 -14 2 -19 5 -12 2 6 2 18 0 25 -3 6 -5 1 -5 -13z"/>
<path d="M2105 2260 c3 -5 11 -10 16 -10 6 0 7 5 4 10 -3 6 -11 10 -16 10 -6
0 -7 -4 -4 -10z"/>
<path d="M1766 2235 l-39 -23 52 -27 c52 -26 52 -26 91 -8 22 10 40 21 40 25
0 4 -13 14 -30 23 -64 33 -74 34 -114 10z"/>
<path d="M3162 2078 c-1 -104 1 -188 6 -188 4 0 6 55 4 122 -5 231 -8 253 -10
66z"/>
<path d="M1567 2231 c-31 -20 -26 -28 30 -50 35 -14 67 -10 97 12 19 14 18 16
-22 36 -50 26 -69 26 -105 2z"/>
<path d="M1048 2219 c-21 -11 -38 -22 -38 -24 0 -3 18 4 40 15 22 11 40 23 40
25 0 7 0 7 -42 -16z"/>
<path d="M3632 2220 c0 -14 2 -19 5 -12 2 6 2 18 0 25 -3 6 -5 1 -5 -13z"/>
<path d="M4110 2231 c0 -6 4 -13 10 -16 6 -3 7 1 4 9 -7 18 -14 21 -14 7z"/>
<path d="M4607 2180 c-8 -70 -35 -129 -74 -159 -15 -12 -19 -18 -8 -12 48 22
83 88 92 171 3 33 4 60 1 60 -3 0 -8 -27 -11 -60z"/>
<path d="M1210 2210 c-19 -11 -31 -19 -27 -20 11 0 67 29 67 35 0 7 -1 7 -40
-15z"/>
<path d="M1692 2175 c-39 -17 -35 -28 18 -55 l39 -20 36 21 c19 12 35 23 35
25 0 5 -77 44 -87 44 -4 -1 -23 -7 -41 -15z"/>
<path d="M1898 2173 c-21 -8 -38 -18 -38 -22 0 -3 22 -18 48 -33 l49 -27 38
26 38 26 -44 23 c-52 27 -45 27 -91 7z"/>
<path d="M3632 2165 c0 -16 2 -22 5 -12 2 9 2 23 0 30 -3 6 -5 -1 -5 -18z"/>
<path d="M3662 2155 c-2 -42 11 -61 28 -40 10 12 10 15 -3 15 -9 0 -17 11 -20
28 l-4 27 -1 -30z"/>
<path d="M3695 2163 c-5 -15 -4 -16 6 -5 18 17 34 15 19 -3 -15 -18 -5 -34 11
-18 15 15 4 43 -15 43 -7 0 -17 -8 -21 -17z"/>
<path d="M924 2154 c-18 -14 -18 -15 4 -4 12 6 22 13 22 15 0 8 -5 6 -26 -11z"/>
<path d="M1220 2152 c0 -5 16 -16 35 -25 36 -17 69 -13 62 7 -5 11 -11 12 -38
1 -9 -3 -23 1 -32 9 -17 18 -27 20 -27 8z"/>
<path d="M3591 2130 c7 -14 12 -28 11 -32 -1 -5 3 -8 8 -8 15 0 12 12 -11 40
l-20 25 12 -25z"/>
<path d="M1598 2114 c-30 -16 -34 -24 -18 -40 7 -7 -3 -14 -28 -23 -49 -16
-82 -33 -82 -41 0 -4 22 -17 49 -29 48 -23 50 -23 100 -6 60 20 68 29 41 48
-20 14 -20 14 7 20 15 4 39 15 52 25 l23 19 -34 21 c-41 26 -72 27 -110 6z
m27 -64 c3 -6 -1 -7 -9 -4 -18 7 -21 14 -7 14 6 0 13 -4 16 -10z m-60 -40 c3
-5 1 -10 -4 -10 -6 0 -11 5 -11 10 0 6 2 10 4 10 3 0 8 -4 11 -10z"/>
<path d="M1798 2112 c-16 -9 -28 -19 -28 -22 0 -4 18 -17 41 -29 40 -23 41
-23 80 -6 21 10 39 22 39 26 0 10 -74 49 -92 49 -7 0 -25 -8 -40 -18z"/>
<path d="M828 2104 c-38 -20 -36 -28 2 -9 17 9 30 18 30 20 0 7 -1 6 -32 -11z"/>
<path d="M2008 2104 c-16 -8 -28 -18 -28 -22 0 -4 20 -19 45 -32 l46 -25 36
20 c20 11 37 24 37 30 1 12 -62 44 -89 44 -11 0 -32 -7 -47 -15z"/>
<path d="M3562 2104 c10 -10 20 -16 22 -13 3 3 -5 11 -17 18 -21 13 -21 12 -5
-5z"/>
<path d="M4250 2085 c19 -19 36 -35 39 -35 3 0 -10 16 -29 35 -19 19 -36 35
-39 35 -3 0 10 -16 29 -35z"/>
<path d="M1346 2094 c-7 -18 21 -31 36 -16 7 7 4 13 -10 21 -16 8 -21 7 -26
-5z"/>
<path d="M3791 2086 c-1 -12 -6 -16 -16 -12 -17 6 -20 -9 -4 -20 6 -3 21 4 33
16 11 13 16 20 9 16 -6 -3 -14 0 -16 6 -3 8 -6 5 -6 -6z"/>
<path d="M3539 2085 c-1 -3 -2 -8 -3 -12 -1 -5 -4 -13 -8 -19 -4 -6 -1 -11 7
-11 8 0 13 2 10 5 -2 3 0 13 6 23 6 13 6 19 -1 19 -5 0 -11 -2 -11 -5z"/>
<path d="M2460 2076 c0 -2 7 -7 16 -10 8 -3 12 -2 9 4 -6 10 -25 14 -25 6z"/>
<path d="M750 2055 c-7 -9 -11 -17 -9 -20 3 -2 10 5 17 15 14 24 10 26 -8 5z"/>
<path d="M1395 2059 c-8 -11 55 -43 65 -32 5 4 -7 15 -26 24 -19 9 -37 13 -39
8z"/>
<path d="M1718 2052 c-35 -21 -35 -28 2 -47 36 -19 39 -28 5 -15 -25 9 -75 -4
-75 -20 0 -6 104 -64 454 -252 60 -32 115 -58 121 -58 6 0 19 6 29 13 16 12
16 14 -2 30 -10 9 -73 45 -139 80 -105 54 -211 118 -147 88 16 -8 30 -4 59 14
l39 23 -35 21 c-41 25 -49 26 -97 5 l-37 -15 25 -20 c14 -11 -17 1 -69 27
l-94 47 47 24 c25 13 46 25 46 28 0 8 -78 45 -92 44 -7 0 -25 -8 -40 -17z"/>
<path d="M1913 2053 c-18 -9 -33 -20 -33 -24 0 -8 67 -49 80 -49 5 0 24 10 43
23 l34 23 -41 22 c-48 26 -42 25 -83 5z"/>
<path d="M2137 2039 c-21 -11 -35 -23 -33 -28 3 -4 23 -16 45 -26 41 -18 72
-16 105 8 19 14 17 16 -30 40 l-49 25 -38 -19z"/>
<path d="M2500 2056 c0 -2 7 -7 16 -10 8 -3 12 -2 9 4 -6 10 -25 14 -25 6z"/>
<path d="M4265 2040 c10 -11 20 -20 23 -20 3 0 -3 9 -13 20 -10 11 -20 20 -23
20 -3 0 3 -9 13 -20z"/>
<path d="M3655 2030 c-3 -5 -1 -10 4 -10 6 0 11 5 11 10 0 6 -2 10 -4 10 -3 0
-8 -4 -11 -10z"/>
<path d="M3690 2029 c0 -5 5 -7 10 -4 6 3 10 8 10 11 0 2 -4 4 -10 4 -5 0 -10
-5 -10 -11z"/>
<path d="M3762 2025 c-10 -12 -7 -17 17 -30 38 -19 55 -19 19 1 -17 9 -25 20
-22 29 8 19 3 19 -14 0z"/>
<path d="M3623 2005 c0 -16 4 -22 13 -18 8 3 14 7 14 10 0 2 -6 11 -14 18 -11
12 -13 10 -13 -10z"/>
<path d="M1822 1991 c-37 -19 -34 -25 25 -55 30 -15 33 -15 72 7 l40 23 -45
22 c-53 26 -50 26 -92 3z"/>
<path d="M2018 1994 c-37 -20 -35 -30 11 -54 l40 -20 41 24 41 23 -41 22 c-48
25 -56 25 -92 5z"/>
<path d="M3671 2001 c-11 -7 -9 -10 10 -13 14 -2 23 -9 21 -17 -3 -12 0 -12
13 -1 13 11 20 11 40 0 13 -7 22 -17 19 -22 -3 -4 -1 -8 5 -8 5 0 11 5 13 12
5 14 -61 50 -75 41 -6 -3 -7 -1 -3 5 9 14 -22 16 -43 3z"/>
<path d="M737 1986 c-3 -8 2 -20 11 -27 14 -11 15 -11 5 0 -6 7 -9 20 -6 27 3
8 3 14 0 14 -3 0 -7 -6 -10 -14z"/>
<path d="M4380 1989 c34 -10 92 -10 106 -1 7 4 -20 7 -60 8 -44 0 -61 -2 -46
-7z"/>
<path d="M2263 1977 c-18 -7 -33 -16 -33 -22 0 -5 19 -20 42 -33 45 -25 68
-24 108 7 l25 20 -35 14 c-58 24 -73 26 -107 14z"/>
<path d="M3573 1975 c-10 -10 -9 -14 2 -19 17 -6 26 5 17 21 -5 8 -11 7 -19
-2z"/>
<path d="M3662 1936 c-1 -27 4 -49 13 -56 12 -10 12 -14 1 -25 -10 -11 -14
-50 -14 -155 -1 -125 1 -140 16 -139 9 0 12 3 7 5 -13 5 -9 218 4 222 4 1 17
9 27 17 18 14 17 14 -8 5 -23 -8 -26 -7 -21 8 12 33 25 44 34 30 7 -10 9 -10
9 -1 0 7 7 10 15 7 13 -5 13 -9 3 -22 -7 -8 26 5 74 29 48 24 87 47 88 50 0 4
-7 9 -15 13 -8 3 -14 0 -12 -6 1 -6 -4 -13 -12 -16 -10 -3 -12 0 -8 12 4 11 3
15 -4 11 -6 -4 -8 -13 -5 -21 3 -8 -7 -19 -26 -29 -17 -8 -32 -15 -32 -15 -5
0 3 60 9 71 8 12 6 12 -8 0 -11 -9 -15 -21 -11 -34 6 -20 -9 -37 -35 -37 -11
0 -10 4 3 19 11 12 14 21 7 26 -6 3 -11 0 -11 -7 0 -26 -21 -37 -46 -26 -18 8
-23 17 -20 35 3 13 -1 35 -8 48 -13 25 -13 24 -14 -19z"/>
<path d="M3830 1976 c0 -2 7 -7 16 -10 8 -3 12 -2 9 4 -6 10 -25 14 -25 6z"/>
<path d="M3610 1960 c0 -6 5 -10 11 -10 8 0 8 -5 -1 -15 -7 -8 -15 -13 -19
-11 -11 6 -40 -29 -33 -41 5 -7 18 -2 40 18 35 31 41 53 17 63 -8 3 -15 1 -15
-4z"/>
<path d="M3810 1956 c0 -3 9 -10 20 -16 11 -6 20 -8 20 -6 0 3 -9 10 -20 16
-11 6 -20 8 -20 6z"/>
<path d="M2116 1933 l-29 -15 39 -24 c46 -28 58 -29 103 -5 l35 19 -42 21
c-49 25 -67 26 -106 4z"/>
<path d="M3420 1937 c-23 -11 -25 -18 -24 -72 1 -33 6 -87 12 -120 10 -58 11
-58 5 28 -4 61 -2 87 6 87 6 0 11 -7 11 -15 0 -9 6 -12 15 -9 12 5 15 -2 15
-30 0 -42 19 -49 22 -8 1 15 4 -9 8 -53 l5 -80 5 78 5 79 -47 25 c-46 25 -59
45 -38 58 6 4 8 11 5 16 -3 5 1 6 9 3 11 -4 16 0 16 10 0 19 1 19 -30 3z"/>
<path d="M771 1937 c2 -1 13 -9 24 -17 19 -14 19 -14 6 3 -7 9 -18 17 -24 17
-6 0 -8 -1 -6 -3z"/>
<path d="M2731 1936 c10 -9 69 -36 69 -32 0 6 -55 36 -66 36 -4 0 -5 -2 -3 -4z"/>
<path d="M3704 1924 c3 -9 6 -20 6 -25 0 -6 4 -8 9 -5 12 8 2 46 -11 46 -6 0
-7 -7 -4 -16z"/>
<path d="M2382 1909 c-37 -24 -33 -33 21 -62 34 -19 35 -19 71 5 19 12 36 26
36 29 0 6 -83 49 -92 49 -2 0 -18 -10 -36 -21z"/>
<path d="M2045 1876 l-38 -23 24 -15 c58 -37 62 -37 101 -15 21 11 38 23 38
27 0 4 -48 32 -81 46 -3 2 -23 -8 -44 -20z"/>
<path d="M2236 1876 l-38 -24 45 -26 45 -27 46 23 46 22 -48 28 c-26 15 -49
28 -52 28 -3 -1 -22 -11 -44 -24z"/>
<path d="M2830 1881 c14 -11 30 -21 35 -21 11 0 -7 14 -40 31 -13 7 -12 3 5
-10z"/>
<path d="M3423 1893 c3 -5 51 -30 106 -58 56 -27 101 -55 101 -63 0 -15 -75
-115 -114 -151 l-26 -24 0 26 c0 21 -4 25 -17 20 -9 -4 -13 -8 -7 -10 5 -2 8
-59 7 -135 -1 -73 1 -124 4 -113 3 11 10 26 17 34 8 12 8 13 -1 7 -10 -5 -13
10 -13 66 0 61 3 76 20 91 11 9 21 17 23 17 1 0 2 -16 1 -35 -1 -19 2 -33 6
-30 4 3 6 22 5 43 -2 26 4 47 16 63 11 13 17 17 14 9 -3 -8 -1 -28 4 -45 9
-28 9 -26 10 20 2 66 17 92 26 44 11 -58 3 -104 -17 -103 -20 2 -24 -11 -7
-21 6 -4 17 1 25 11 11 14 14 37 10 92 -3 55 -1 76 10 87 34 34 14 58 -96 112
-111 56 -114 57 -107 46z"/>
<path d="M3893 1879 c-6 -6 -53 -33 -104 -60 -52 -26 -89 -49 -82 -49 6 0 14
-10 16 -22 4 -20 4 -19 6 5 1 24 6 29 27 26 3 0 12 8 20 18 12 17 13 16 14
-10 0 -29 20 -34 28 -6 3 11 2 11 -7 -1 -9 -13 -11 -12 -11 3 0 17 22 47 34
47 3 0 7 -39 9 -87 l3 -88 2 92 c2 83 4 93 23 104 17 9 23 8 30 -2 6 -10 9 -6
9 14 0 30 -1 32 -17 16z"/>
<path d="M4027 1860 c7 -43 13 -52 13 -19 0 14 6 31 13 39 10 12 9 12 -5 2
-13 -10 -17 -10 -21 0 -3 7 -3 -3 0 -22z"/>
<path d="M4193 1839 c-12 -27 -20 -49 -18 -49 8 0 46 81 43 90 -2 4 -13 -14
-25 -41z"/>
<path d="M3285 1855 c-52 -32 -40 -32 16 0 24 14 40 25 34 25 -5 0 -28 -11
-50 -25z"/>
<path d="M4071 1864 c0 -12 -3 -37 -6 -55 -3 -19 -2 -27 1 -19 4 8 10 17 13
20 4 3 4 21 0 40 -3 19 -7 25 -8 14z"/>
<path d="M3600 1857 c0 -8 7 -20 15 -27 12 -10 16 -9 21 5 4 9 1 22 -6 28 -10
9 -11 9 -5 -3 8 -13 7 -13 -8 -1 -15 11 -17 11 -17 -2z"/>
<path d="M4149 1849 l-24 -20 28 17 c15 9 27 18 27 20 0 8 -8 4 -31 -17z"/>
<path d="M2491 1841 l-34 -18 24 -16 c60 -39 75 -41 113 -17 41 24 39 36 -10
56 -42 18 -51 17 -93 -5z"/>
<path d="M2880 1855 c0 -7 61 -37 66 -33 2 3 -12 12 -31 21 -19 9 -35 15 -35
12z"/>
<path d="M4251 1858 c2 -2 18 -14 34 -28 l30 -25 -24 28 c-14 15 -29 27 -34
27 -6 0 -8 -1 -6 -2z"/>
<path d="M2153 1819 c-18 -12 -33 -23 -33 -25 0 -2 18 -13 41 -24 39 -20 41
-20 80 -4 21 10 39 21 39 24 0 5 -85 50 -93 50 -1 0 -17 -10 -34 -21z"/>
<path d="M2352 1811 c-36 -19 -35 -21 25 -54 31 -17 33 -17 74 4 l41 22 -43
23 c-53 28 -55 28 -97 5z"/>
<path d="M3200 1806 c0 -8 4 -17 9 -20 5 -4 7 3 4 14 -6 23 -13 26 -13 6z"/>
<path d="M3918 1793 c5 -21 7 -23 10 -9 2 10 0 22 -6 28 -6 6 -7 0 -4 -19z"/>
<path d="M3523 1755 c0 -33 2 -45 4 -27 2 18 2 45 0 60 -2 15 -4 0 -4 -33z"/>
<path d="M3881 1794 c0 -11 3 -14 6 -6 3 7 2 16 -1 19 -3 4 -6 -2 -5 -13z"/>
<path d="M3951 1794 c0 -11 3 -14 6 -6 3 7 2 16 -1 19 -3 4 -6 -2 -5 -13z"/>
<path d="M4017 1803 c-4 -5 5 -21 18 -33 14 -13 25 -18 25 -12 0 7 -5 12 -10
12 -6 0 -14 10 -19 22 -4 12 -11 17 -14 11z"/>
<path d="M2611 1781 l-34 -18 24 -15 c58 -37 62 -37 101 -15 21 12 38 25 38
28 0 6 -79 40 -90 39 -3 -1 -20 -9 -39 -19z"/>
<path d="M3542 1765 c0 -16 2 -22 5 -12 2 9 2 23 0 30 -3 6 -5 -1 -5 -18z"/>
<path d="M3568 1749 l-3 -39 22 28 c28 33 28 38 4 45 -16 4 -20 -2 -23 -34z
m32 17 c0 -3 -4 -8 -10 -11 -5 -3 -10 -1 -10 4 0 6 5 11 10 11 6 0 10 -2 10
-4z"/>
<path d="M2257 1759 l-39 -20 33 -25 c40 -29 40 -29 89 -4 50 26 52 19 3 -10
l-37 -22 34 -28 c26 -21 38 -26 48 -18 10 8 11 7 5 -8 -5 -15 -4 -17 8 -8 8 6
23 14 34 17 19 7 19 7 1 -8 -16 -12 -17 -17 -6 -30 10 -13 9 -15 -8 -15 -33 0
-34 -17 -2 -30 17 -7 28 -15 26 -17 -3 -3 -26 6 -51 21 -38 20 -51 24 -67 15
-24 -13 -20 -17 49 -55 l52 -29 45 32 45 32 38 -21 c21 -11 51 -27 67 -36 l30
-15 -52 -20 c-29 -11 -52 -23 -52 -28 0 -5 18 -18 40 -29 38 -19 42 -20 73 -4
17 9 39 23 47 31 8 8 58 38 110 68 52 29 94 58 93 64 -2 5 3 8 11 5 20 -8 98
34 90 48 -4 6 -35 24 -71 39 -53 25 -67 28 -86 18 -45 -24 -49 -30 -30 -52 15
-16 9 -15 -36 8 -53 27 -54 27 -93 9 -21 -10 -41 -21 -44 -26 -3 -4 14 -17 38
-27 24 -11 38 -20 31 -20 -6 -1 -33 9 -60 21 -26 12 -53 22 -60 23 -17 1 -29
15 -12 15 8 0 -2 8 -21 18 -30 16 -37 16 -52 4 -9 -8 -23 -12 -30 -9 -8 3 -4
9 12 15 l25 11 -22 7 c-13 3 -23 10 -23 15 0 15 -37 10 -50 -6 -7 -8 -17 -15
-23 -15 -5 0 -2 10 9 21 14 17 16 23 6 26 -7 3 -21 13 -30 24 -14 15 -83 50
-94 49 -2 -1 -20 -10 -41 -21z m618 -169 c3 -6 -1 -7 -9 -4 -18 7 -21 14 -7
14 6 0 13 -4 16 -10z m-225 -50 c0 -5 -7 -10 -15 -10 -8 0 -15 5 -15 10 0 6 7
10 15 10 8 0 15 -4 15 -10z m200 0 c0 -5 -4 -10 -9 -10 -6 0 -13 5 -16 10 -3
6 1 10 9 10 9 0 16 -4 16 -10z m-205 -110 c3 -5 2 -10 -4 -10 -5 0 -13 5 -16
10 -3 6 -2 10 4 10 5 0 13 -4 16 -10z"/>
<path d="M3981 1745 c-2 -32 -4 -36 -11 -20 -5 11 -9 14 -9 6 -1 -8 -8 -11
-18 -7 -15 5 -15 4 1 -9 11 -8 25 -16 30 -16 6 -1 -5 -5 -24 -9 l-35 -7 41 -2
c23 0 46 -7 51 -13 17 -22 21 -44 12 -59 -8 -12 -11 -12 -19 2 -5 9 -19 27
-30 40 -21 23 -21 23 0 -9 12 -18 21 -35 19 -37 -10 -9 -71 27 -76 44 -4 17
-10 15 -69 -20 -35 -22 -84 -49 -109 -61 -24 -12 -41 -26 -38 -31 3 -6 1 -7
-5 -3 -24 15 -45 -10 -46 -55 -1 -41 -36 -116 -36 -77 0 9 7 19 16 22 9 4 15
9 12 11 -11 11 -38 -8 -38 -26 0 -12 -14 -28 -35 -40 -19 -12 -35 -29 -35 -38
0 -10 -11 -23 -25 -29 -14 -6 -25 -17 -25 -23 0 -6 -7 -9 -15 -5 -20 7 -19 4
4 -15 16 -14 21 -14 42 -2 23 13 23 14 2 8 -13 -4 -23 -2 -23 2 0 15 79 55 92
47 6 -4 8 -3 5 3 -8 13 38 37 54 28 7 -5 10 -4 6 2 -4 6 33 30 86 57 50 25
111 57 135 72 34 21 42 23 42 10 0 -8 19 -25 41 -37 47 -23 95 -20 122 9 9 9
25 26 35 38 10 11 24 49 31 84 7 34 17 74 22 88 7 19 6 29 -5 40 -16 17 -50 9
-43 -11 4 -12 -20 -36 -37 -37 -4 0 -6 12 -2 28 4 21 4 23 -3 7 -5 -11 -12
-28 -15 -37 -6 -21 -26 -24 -26 -5 0 8 -9 22 -19 32 -12 10 -21 34 -24 59 l-4
41 -2 -40z m165 -47 c7 -11 -10 -27 -78 -76 -22 -16 -17 -9 12 17 25 23 44 48
42 56 -3 18 14 20 24 3z m-201 -108 c13 -5 14 -9 5 -9 -8 0 -24 4 -35 9 -13 5
-14 9 -5 9 8 0 24 -4 35 -9z m92 -47 c-3 -10 -5 -2 -5 17 0 19 2 27 5 18 2
-10 2 -26 0 -35z m-365 -59 c2 -19 1 -37 -2 -39 -3 -2 -7 14 -8 36 -3 49 4 52
10 3z m78 11 c0 -2 -10 -9 -22 -15 -22 -11 -22 -10 -4 4 21 17 26 19 26 11z"/>
<path d="M4153 1768 c-15 -20 -25 -38 -20 -38 3 0 12 11 21 25 17 26 16 35 -1
13z"/>
<path d="M4252 1755 c0 -16 2 -22 5 -12 2 9 2 23 0 30 -3 6 -5 -1 -5 -18z"/>
<path d="M388 1763 c6 -2 18 -2 25 0 6 3 1 5 -13 5 -14 0 -19 -2 -12 -5z"/>
<path d="M2463 1753 c-18 -9 -33 -19 -33 -23 0 -3 20 -16 45 -30 l45 -25 45
25 45 25 -42 22 c-51 26 -63 27 -105 6z"/>
<path d="M4086 1755 c-3 -9 -6 -22 -5 -28 0 -7 5 -1 10 12 5 13 8 26 5 28 -2
2 -6 -3 -10 -12z"/>
<path d="M3392 1730 c0 -19 2 -27 5 -17 2 9 2 25 0 35 -3 9 -5 1 -5 -18z"/>
<path d="M3750 1740 c0 -11 2 -20 4 -20 2 0 6 9 9 20 3 11 1 20 -4 20 -5 0 -9
-9 -9 -20z"/>
<path d="M3800 1739 c0 -5 5 -7 10 -4 6 3 10 8 10 11 0 2 -4 4 -10 4 -5 0 -10
-5 -10 -11z"/>
<path d="M4024 1736 c-3 -8 -1 -23 5 -33 9 -15 10 -13 11 15 0 34 -7 42 -16
18z"/>
<path d="M2717 1723 l-39 -16 46 -28 c55 -35 55 -35 101 -7 l37 21 -38 24
c-45 27 -56 27 -107 6z"/>
<path d="M3874 1721 c4 -5 0 -12 -6 -14 -7 -3 -3 -6 9 -6 16 -1 21 3 17 14 -4
8 -10 15 -16 15 -5 0 -7 -4 -4 -9z"/>
<path d="M4362 1721 c-9 -5 -13 -27 -12 -62 2 -76 2 -79 -15 -73 -15 6 -21
-11 -7 -20 11 -7 79 60 87 86 6 22 5 22 -6 3 -15 -24 -35 -45 -43 -45 -10 0
-6 80 4 101 12 21 11 22 -8 10z"/>
<path d="M3448 1695 c-3 -14 -1 -25 3 -25 5 0 9 11 9 25 0 14 -2 25 -4 25 -2
0 -6 -11 -8 -25z"/>
<path d="M3702 1658 c-1 -38 2 -68 7 -68 14 0 33 28 28 42 -4 8 -6 7 -6 -4 -1
-10 -5 -18 -11 -18 -5 0 -11 26 -13 58 l-3 57 -2 -67z"/>
<path d="M3763 1713 c-7 -3 -13 -9 -13 -14 0 -6 5 -7 10 -4 6 4 10 -7 10 -24
0 -17 -5 -31 -12 -31 -6 0 -9 -3 -5 -6 3 -3 11 -2 19 3 17 11 9 82 -9 76z"/>
<path d="M844 1696 c11 -9 24 -16 30 -16 12 0 7 5 -24 19 -24 11 -24 11 -6 -3z"/>
<path d="M2582 1692 c-18 -8 -31 -20 -29 -25 1 -4 19 -18 40 -30 l38 -21 45
23 45 24 -46 24 c-54 27 -50 27 -93 5z"/>
<path d="M3800 1680 c0 -16 2 -30 4 -30 2 0 6 14 8 30 3 17 1 30 -4 30 -4 0
-8 -13 -8 -30z"/>
<path d="M4261 1694 c0 -11 3 -14 6 -6 3 7 2 16 -1 19 -3 4 -6 -2 -5 -13z"/>
<path d="M4421 1694 c0 -11 3 -14 6 -6 3 7 2 16 -1 19 -3 4 -6 -2 -5 -13z"/>
<path d="M771 1691 c-20 -13 -6 -40 26 -51 48 -18 73 -33 67 -41 -3 -5 3 -6
13 -2 10 3 15 3 11 -2 -10 -11 59 -55 76 -49 8 3 25 0 38 -6 22 -11 22 -10 4
4 -11 9 -30 16 -42 16 -31 0 -39 18 -18 41 9 10 12 19 7 19 -6 0 -16 -7 -23
-15 -11 -13 -21 -10 -77 20 -36 20 -70 38 -75 41 -5 3 -4 12 3 20 13 16 10 18
-10 5z"/>
<path d="M3536 1683 c-6 -15 -8 -15 -16 -3 -8 12 -10 9 -10 -10 l0 -24 22 22
c12 12 19 24 16 27 -3 3 -9 -2 -12 -12z"/>
<path d="M668 1664 c-27 -13 -48 -26 -48 -29 0 -5 50 15 67 28 6 4 24 12 40
17 20 6 22 8 8 9 -11 0 -41 -11 -67 -25z"/>
<path d="M900 1666 c0 -2 7 -7 16 -10 8 -3 12 -2 9 4 -6 10 -25 14 -25 6z"/>
<path d="M4321 1634 c0 -11 3 -14 6 -6 3 7 2 16 -1 19 -3 4 -6 -2 -5 -13z"/>
<path d="M4520 1631 l-25 -7 26 -5 c17 -4 26 -1 26 8 0 7 -1 13 -1 12 -1 -1
-12 -4 -26 -8z"/>
<path d="M970 1605 c-5 -14 -15 -25 -21 -25 -7 0 -10 -2 -7 -5 11 -11 38 8 38
27 0 12 4 17 12 12 7 -4 8 -3 4 4 -11 17 -15 15 -26 -13z"/>
<path d="M2259 1613 c-13 -16 -12 -17 4 -4 16 13 21 21 13 21 -2 0 -10 -8 -17
-17z"/>
<path d="M3272 1618 c-6 -7 -32 -24 -59 -38 -55 -28 -393 -212 -558 -304 -60
-33 -139 -75 -174 -93 -35 -18 -58 -33 -52 -33 16 0 118 52 197 100 35 22 67
40 71 40 3 0 60 30 127 67 66 36 140 77 164 90 23 12 54 30 68 39 13 9 27 14
30 11 3 -3 -9 -13 -28 -23 -18 -9 -35 -20 -38 -23 -3 -3 -26 -17 -52 -31 -27
-13 -48 -28 -48 -33 0 -4 -5 -5 -10 -2 -6 3 -13 -1 -16 -9 -3 -9 -14 -16 -24
-16 -10 0 -23 -7 -30 -15 -7 -8 -17 -15 -22 -15 -5 0 -14 -5 -21 -10 -7 -6
-21 -18 -32 -26 -11 -9 5 -2 35 16 30 17 68 36 85 42 33 13 103 49 239 123 76
41 91 46 100 33 6 -8 20 -17 31 -21 14 -5 11 0 -9 16 l-29 24 36 27 c20 15 42
25 49 21 7 -4 5 0 -6 9 -10 8 -16 22 -13 31 8 18 3 19 -11 3z m-110 -89 c-30
-17 -56 -28 -58 -26 -5 5 86 56 101 56 6 1 -14 -13 -43 -30z"/>
<path d="M3443 1590 c0 -25 2 -35 4 -22 2 12 2 32 0 45 -2 12 -4 2 -4 -23z"/>
<path d="M4283 1610 c3 -8 7 -25 11 -37 6 -19 4 -21 -16 -18 -22 4 -22 3 5
-20 31 -28 34 -50 10 -78 -17 -19 -17 -20 5 -8 14 7 22 21 22 36 0 23 4 25 53
27 l52 2 -47 3 -48 4 28 25 27 25 -27 -17 c-21 -12 -28 -13 -28 -3 0 7 -3 9
-7 5 -4 -4 -16 10 -26 31 -9 21 -16 31 -14 23z"/>
<path d="M540 1600 c-8 -5 -10 -10 -5 -10 6 0 17 5 25 10 8 5 11 10 5 10 -5 0
-17 -5 -25 -10z"/>
<path d="M2271 1597 c2 -1 13 -9 24 -17 19 -14 19 -14 6 3 -7 9 -18 17 -24 17
-6 0 -8 -1 -6 -3z"/>
<path d="M4524 1589 c-3 -6 -27 -24 -52 -40 -25 -16 -41 -29 -35 -29 12 0 88
54 98 69 3 6 4 11 1 11 -3 0 -8 -5 -12 -11z"/>
<path d="M3492 1512 c-1 -40 2 -61 8 -57 6 3 10 1 10 -5 0 -8 4 -7 13 2 15 15
20 58 6 58 -5 0 -8 -3 -8 -7 1 -5 1 -17 0 -27 -2 -38 -20 -1 -24 49 -3 48 -3
47 -5 -13z"/>
<path d="M3563 1533 c4 -3 2 -12 -4 -19 -8 -9 -5 -11 11 -7 16 4 18 8 9 19 -6
8 -14 14 -17 14 -3 0 -2 -3 1 -7z"/>
<path d="M3443 1450 c0 -47 2 -66 4 -42 2 23 2 61 0 85 -2 23 -4 4 -4 -43z"/>
<path d="M1070 1506 c0 -2 8 -10 18 -17 15 -13 16 -12 3 4 -13 16 -21 21 -21
13z"/>
<path d="M2461 1486 c-9 -10 -8 -15 3 -19 8 -3 16 2 19 14 6 22 -6 25 -22 5z"/>
<path d="M2506 1475 c4 -9 0 -15 -7 -15 -9 -1 -8 -4 4 -11 9 -6 27 -7 39 -3
l22 7 -23 18 c-28 23 -42 24 -35 4z"/>
<path d="M4335 1480 c-3 -6 1 -7 9 -4 18 7 21 14 7 14 -6 0 -13 -4 -16 -10z"/>
<path d="M1150 1466 c0 -8 4 -17 9 -20 5 -4 7 3 4 14 -6 23 -13 26 -13 6z"/>
<path d="M831 1466 c2 -2 18 -6 34 -10 22 -5 26 -4 15 4 -14 9 -59 15 -49 6z"/>
<path d="M1210 1455 c-6 -8 -10 -19 -8 -26 2 -6 9 0 16 15 13 29 10 33 -8 11z"/>
<path d="M755 1450 c-3 -6 1 -7 9 -4 18 7 21 14 7 14 -6 0 -13 -4 -16 -10z"/>
<path d="M3189 1453 c-3 -21 4 -59 13 -70 6 -7 20 -13 32 -13 20 1 19 2 -7 25
-16 14 -29 34 -30 45 -1 20 -6 27 -8 13z"/>
<path d="M920 1436 c0 -3 9 -10 20 -16 11 -6 20 -8 20 -6 0 3 -9 10 -20 16
-11 6 -20 8 -20 6z"/>
<path d="M4208 1409 c-21 -11 -38 -22 -38 -24 0 -3 18 4 40 15 22 11 40 23 40
25 0 7 0 7 -42 -16z"/>
<path d="M850 1406 c-63 -23 -114 -53 -101 -60 6 -4 11 -2 11 4 0 6 5 8 10 5
6 -3 10 -1 10 5 0 6 4 8 10 5 9 -5 100 41 100 51 0 5 1 5 -40 -10z"/>
<path d="M1223 1414 c5 -6 225 -125 392 -213 70 -37 57 -26 -35 28 -70 41
-351 191 -359 191 -2 0 -2 -3 2 -6z"/>
<path d="M901 1406 c2 -2 15 -9 29 -15 24 -11 24 -11 6 3 -16 13 -49 24 -35
12z"/>
<path d="M970 1405 c0 -7 101 -57 106 -53 2 2 -21 16 -51 31 -30 15 -55 25
-55 22z"/>
<path d="M4135 1370 c-3 -6 1 -7 9 -4 18 7 21 14 7 14 -6 0 -13 -4 -16 -10z"/>
<path d="M3190 1353 c8 -3 18 -11 22 -17 9 -14 22 -1 13 13 -3 6 -16 11 -28
10 -15 0 -17 -2 -7 -6z"/>
<path d="M712 1343 c-6 -2 -9 -9 -6 -15 4 -6 1 -8 -7 -6 -17 6 -69 -19 -69
-33 0 -6 -4 -7 -10 -4 -5 3 -10 1 -10 -5 0 -6 -4 -8 -10 -5 -5 3 -10 1 -10 -6
0 -7 -3 -9 -6 -6 -10 10 -84 -35 -77 -46 3 -5 0 -7 -8 -5 -18 7 -51 -10 -44
-22 7 -12 65 16 65 31 0 6 4 8 9 4 6 -3 14 3 20 12 6 10 11 15 11 10 0 -4 41
13 90 38 50 25 88 50 85 55 -3 6 -7 10 -8 9 -1 0 -8 -3 -15 -6z"/>
<path d="M1090 1346 c0 -3 14 -12 30 -21 17 -9 30 -13 30 -11 0 3 -13 12 -30
21 -16 9 -30 13 -30 11z"/>
<path d="M3088 1343 c7 -3 16 -2 19 1 4 3 -2 6 -13 5 -11 0 -14 -3 -6 -6z"/>
<path d="M3320 1340 c8 -5 20 -10 25 -10 6 0 3 5 -5 10 -8 5 -19 10 -25 10 -5
0 -3 -5 5 -10z"/>
<path d="M3763 1320 c-65 -37 -134 -85 -110 -77 11 4 17 1 17 -7 0 -7 7 -20
17 -27 15 -13 13 -15 -13 -20 -27 -6 -28 -7 -4 -8 14 0 58 15 99 34 81 39 85
40 75 23 -4 -8 -3 -10 2 -5 5 5 9 14 9 20 0 5 6 12 14 15 9 3 11 0 6 -9 -5 -8
1 -5 13 5 25 22 28 48 8 65 -11 9 -12 6 -9 -13 5 -22 -4 -29 -87 -71 -74 -37
-94 -44 -106 -34 -30 25 -11 52 66 96 41 24 71 43 65 43 -5 0 -33 -13 -62 -30z"/>
<path d="M4064 1334 c-18 -14 -18 -15 4 -4 12 6 22 13 22 15 0 8 -5 6 -26 -11z"/>
<path d="M3045 1330 c-3 -6 1 -7 9 -4 18 7 21 14 7 14 -6 0 -13 -4 -16 -10z"/>
<path d="M4444 1314 c-18 -14 -18 -15 4 -4 12 6 22 13 22 15 0 8 -5 6 -26 -11z"/>
<path d="M1160 1305 c0 -2 18 -14 40 -25 22 -11 40 -18 40 -15 0 2 -18 14 -40
25 -22 11 -40 18 -40 15z"/>
<path d="M3220 1282 c0 -22 -6 -30 -32 -40 -30 -10 -31 -10 -14 3 11 8 23 15
28 15 4 0 5 7 1 15 -5 14 -8 14 -22 2 -9 -8 -40 -27 -69 -41 -32 -16 -50 -31
-46 -38 4 -6 3 -8 -3 -5 -6 4 -74 -26 -151 -67 -172 -91 -182 -98 -182 -114 0
-14 -36 -10 -69 7 -27 15 -37 56 -20 79 12 16 12 16 -5 0 -14 -12 -17 -24 -11
-45 3 -15 5 -29 3 -29 -2 -1 6 -11 16 -23 29 -32 77 -27 144 15 31 20 61 37
67 38 23 3 151 79 168 99 10 12 16 16 12 10 -9 -19 12 -16 23 3 5 9 12 15 15
15 20 -3 28 0 23 8 -3 5 0 8 7 8 6 -1 38 11 70 27 50 24 57 31 57 57 0 16 -2
29 -5 29 -3 0 -5 -13 -5 -28z m-76 -50 c3 -5 -1 -9 -9 -9 -8 0 -12 4 -9 9 3 4
7 8 9 8 2 0 6 -4 9 -8z m-190 -107 c-10 -8 -23 -15 -29 -15 -5 0 -48 -23 -94
-50 -46 -28 -86 -50 -88 -50 -16 0 38 36 118 78 94 51 130 65 93 37z"/>
<path d="M3412 1294 c10 -10 20 -15 24 -12 3 4 -5 12 -18 18 -22 12 -22 12 -6
-6z"/>
<path d="M3743 1283 c-41 -23 -54 -45 -34 -58 5 -3 26 4 45 16 44 26 48 35 5
13 -18 -9 -35 -12 -40 -7 -5 5 8 16 31 27 22 9 40 22 40 27 0 5 -1 9 -2 8 -2
-1 -22 -12 -45 -26z"/>
<path d="M4548 1287 c34 -18 40 -25 30 -35 -11 -11 -10 -12 5 -7 9 4 17 11 17
16 0 9 -73 49 -87 49 -4 -1 11 -11 35 -23z"/>
<path d="M1111 1297 c2 -1 13 -9 24 -17 19 -14 19 -14 6 3 -7 9 -18 17 -24 17
-6 0 -8 -1 -6 -3z"/>
<path d="M4283 1231 c-67 -37 -126 -71 -130 -75 -9 -11 248 123 262 135 22 21
-18 3 -132 -60z"/>
<path d="M3094 1254 c-18 -14 -18 -15 4 -4 12 6 22 13 22 15 0 8 -5 6 -26 -11z"/>
<path d="M1180 1255 c0 -2 23 -16 50 -30 28 -14 50 -23 50 -20 0 2 -22 16 -50
30 -27 14 -50 23 -50 20z"/>
<path d="M1255 1253 c6 -5 37 -24 70 -42 33 -17 51 -25 40 -16 -23 19 -125 72
-110 58z"/>
<path d="M2665 1249 c2 -3 -13 -16 -35 -28 -22 -12 -42 -26 -45 -31 -3 -6 21
6 54 26 34 20 61 37 61 38 0 1 -9 2 -19 2 -11 0 -18 -3 -16 -7z"/>
<path d="M3960 1251 c0 -6 4 -13 10 -16 6 -3 7 1 4 9 -7 18 -14 21 -14 7z"/>
<path d="M4150 1240 c-9 -6 -10 -10 -3 -10 6 0 15 5 18 10 8 12 4 12 -15 0z"/>
<path d="M4675 1241 c-6 -6 -64 -37 -130 -70 -66 -33 -161 -82 -210 -109 -99
-54 -142 -71 -131 -53 4 6 2 9 -6 6 -22 -7 -313 150 -312 169 1 9 -2 13 -7 10
-14 -8 -11 -30 6 -44 8 -7 15 -23 15 -35 0 -30 0 -30 175 -120 l150 -78 115
63 c63 34 161 87 217 117 84 44 104 59 109 81 3 15 9 37 14 50 10 24 9 27 -5
13z"/>
<path d="M3624 1219 c-3 -6 -1 -16 5 -22 8 -8 11 -5 11 11 0 24 -5 28 -16 11z"/>
<path d="M4098 1214 c-38 -20 -36 -28 2 -9 17 9 30 18 30 20 0 7 -1 6 -32 -11z"/>
<path d="M4508 1214 c-38 -20 -36 -28 2 -9 17 9 30 18 30 20 0 7 -1 6 -32 -11z"/>
<path d="M330 1173 c0 -26 6 -45 18 -55 17 -15 106 -66 305 -174 54 -30 146
-81 205 -115 197 -114 323 -179 347 -179 26 0 454 204 506 241 26 18 30 26 27
61 -2 31 -9 44 -28 55 -22 13 -23 13 -7 0 27 -22 21 -32 -35 -58 -29 -13 -137
-68 -240 -121 -124 -66 -197 -98 -219 -98 -29 0 -83 28 -299 153 -19 11 -69
38 -110 60 -41 22 -79 43 -85 47 -23 18 -215 126 -280 158 -38 18 -78 41 -87
49 -17 15 -18 13 -18 -24z m214 -126 c13 -9 15 -16 8 -21 -14 -8 -61 24 -62
42 0 14 17 7 54 -21z"/>
<path d="M1161 1206 c2 -2 15 -9 29 -15 24 -11 24 -11 6 3 -16 13 -49 24 -35
12z"/>
<path d="M3770 1200 c-9 -6 -10 -10 -3 -10 6 0 15 5 18 10 8 12 4 12 -15 0z"/>
<path d="M3987 1180 c-3 -11 -1 -20 4 -20 5 0 9 9 9 20 0 11 -2 20 -4 20 -2 0
-6 -9 -9 -20z"/>
<path d="M1310 1186 c0 -3 9 -10 20 -16 11 -6 20 -8 20 -6 0 3 -9 10 -20 16
-11 6 -20 8 -20 6z"/>
<path d="M3300 1170 c-19 -11 -30 -19 -25 -19 6 0 26 8 45 19 19 11 31 19 25
19 -5 0 -26 -8 -45 -19z"/>
<path d="M4438 1174 c-38 -20 -36 -28 2 -9 17 9 30 18 30 20 0 7 -1 6 -32 -11z"/>
<path d="M1740 1176 c0 -3 9 -10 20 -16 11 -6 20 -8 20 -6 0 3 -9 10 -20 16
-11 6 -20 8 -20 6z"/>
<path d="M2934 1164 c-18 -14 -18 -15 4 -4 12 6 22 13 22 15 0 8 -5 6 -26 -11z"/>
<path d="M3400 1176 c0 -3 9 -10 20 -16 11 -6 20 -8 20 -6 0 3 -9 10 -20 16
-11 6 -20 8 -20 6z"/>
<path d="M2525 1160 c-3 -6 1 -7 9 -4 18 7 21 14 7 14 -6 0 -13 -4 -16 -10z"/>
<path d="M2353 1143 c9 -2 25 -2 35 0 9 3 1 5 -18 5 -19 0 -27 -2 -17 -5z"/>
<path d="M2468 1134 c-39 -21 -35 -28 5 -8 37 19 44 24 31 24 -5 -1 -21 -8
-36 -16z"/>
<path d="M4100 1135 c-14 -8 -20 -14 -15 -14 6 0 21 6 35 14 14 8 21 14 15 14
-5 0 -21 -6 -35 -14z"/>
<path d="M1275 1130 c-3 -6 1 -7 9 -4 18 7 21 14 7 14 -6 0 -13 -4 -16 -10z"/>
<path d="M1741 1136 c11 -10 369 -206 376 -206 16 1 -354 210 -370 210 -6 0
-8 -2 -6 -4z"/>
<path d="M1811 1136 c2 -2 15 -9 29 -15 24 -11 24 -11 6 3 -16 13 -49 24 -35
12z"/>
<path d="M2848 1124 c-38 -20 -36 -28 2 -9 17 9 30 18 30 20 0 7 -1 6 -32 -11z"/>
<path d="M3471 1136 c10 -9 69 -36 69 -32 0 6 -55 36 -66 36 -4 0 -5 -2 -3 -4z"/>
<path d="M4323 1134 c4 -5 -16 -23 -45 -41 -29 -18 -48 -33 -43 -33 6 0 34 15
64 34 43 27 50 34 35 40 -10 4 -15 4 -11 0z"/>
<path d="M2323 1116 c0 -8 8 -11 19 -8 10 2 18 8 18 13 0 5 -8 9 -18 9 -10 0
-19 -6 -19 -14z"/>
<path d="M3035 1035 c-99 -52 -176 -95 -172 -95 11 0 357 180 357 186 0 6 5 9
-185 -91z"/>
<path d="M4146 1121 c-3 -5 0 -13 7 -18 18 -13 67 -33 67 -27 0 3 -16 12 -35
20 -20 8 -33 19 -30 24 3 6 4 10 1 10 -3 0 -7 -4 -10 -9z"/>
<path d="M1510 1116 c0 -3 14 -12 30 -21 17 -9 30 -13 30 -11 0 3 -13 12 -30
21 -16 9 -30 13 -30 11z"/>
<path d="M945 1090 c-3 -5 -2 -10 4 -10 5 0 13 5 16 10 3 6 2 10 -4 10 -5 0
-13 -4 -16 -10z"/>
<path d="M2771 1084 c-18 -8 -31 -17 -28 -20 5 -6 67 23 67 31 0 6 3 7 -39
-11z"/>
<path d="M1580 1075 c0 -2 23 -16 50 -30 28 -14 50 -23 50 -20 0 2 -22 16 -50
30 -27 14 -50 23 -50 20z"/>
<path d="M1098 1039 c-32 -16 -58 -32 -58 -34 0 -3 27 8 60 25 33 17 60 32 60
35 0 7 2 8 -62 -26z"/>
<path d="M3610 1066 c0 -3 9 -10 20 -16 11 -6 20 -8 20 -6 0 3 -9 10 -20 16
-11 6 -20 8 -20 6z"/>
<path d="M840 1036 c0 -2 7 -7 16 -10 8 -3 12 -2 9 4 -6 10 -25 14 -25 6z"/>
<path d="M1590 1015 c-11 -13 -10 -14 4 -9 9 3 16 10 16 15 0 13 -6 11 -20 -6z"/>
<path d="M3700 1016 c0 -3 14 -12 30 -21 17 -9 30 -13 30 -11 0 3 -13 12 -30
21 -16 9 -30 13 -30 11z"/>
<path d="M1538 984 c-38 -20 -36 -28 2 -9 17 9 30 18 30 20 0 7 -1 6 -32 -11z"/>
<path d="M1388 909 c-21 -11 -38 -22 -38 -24 0 -3 18 4 40 15 22 11 40 23 40
25 0 7 0 7 -42 -16z"/>
<path d="M2170 901 c31 -25 109 -66 114 -60 2 2 -28 21 -67 42 -40 21 -61 29
-47 18z"/>
<path d="M2783 905 c-17 -12 -22 -27 -25 -80 -2 -39 1 -65 7 -65 6 0 9 25 7
62 -4 55 -1 63 20 79 28 22 21 25 -9 4z"/>
<path d="M3795 855 c-44 -24 -87 -49 -95 -57 -8 -7 -17 -12 -20 -11 -12 5
-369 -181 -359 -188 8 -5 8 -8 -1 -14 -6 -4 -18 1 -25 11 -13 17 -14 12 -15
-45 0 -56 -2 -62 -17 -57 -17 6 -17 5 0 -8 14 -11 17 -29 17 -94 0 -118 -9
-119 230 13 69 37 177 95 240 127 63 33 121 64 128 70 13 12 18 299 5 297 -5
-1 -44 -21 -88 -44z m76 12 c-6 -8 -7 -18 -3 -22 4 -5 1 -5 -5 -1 -7 4 -22 2
-34 -4 l-21 -12 23 -24 c31 -33 48 -30 18 3 -13 15 -16 21 -6 14 14 -11 17
-11 17 -1 0 19 10 6 15 -19 3 -17 -6 -26 -48 -47 -29 -15 -49 -23 -44 -18 4 4
-3 19 -15 33 l-23 26 26 -22 c35 -32 47 -29 18 5 l-24 27 26 -22 c35 -31 48
-29 18 3 -21 22 -21 24 -4 18 16 -6 18 -5 8 6 -11 12 -19 11 -50 -4 -58 -27
-30 -6 45 35 80 43 77 42 63 26z m-155 -93 c-2 -16 -41 -43 -61 -43 -5 0 6 8
25 19 19 11 28 19 20 20 -13 0 -13 1 0 10 19 12 19 13 16 -6z m-66 -24 c-19
-11 -28 -20 -20 -20 10 -1 11 -3 2 -7 -6 -2 -10 -9 -7 -14 4 -5 -2 -6 -12 -3
-16 5 -16 4 1 -10 11 -9 15 -16 9 -16 -6 0 -16 6 -22 14 -10 11 -8 17 6 25 14
8 15 11 3 11 -16 1 48 39 65 39 6 0 -6 -8 -25 -19z m113 -16 c-5 -14 -9 -13
-43 14 -3 3 6 1 19 -3 18 -5 22 -4 16 5 -5 8 -4 11 3 6 6 -4 9 -13 5 -22z
m-217 -29 c-11 -8 -25 -15 -30 -15 -6 1 0 7 14 15 32 19 40 18 16 0z m124 -24
c0 -10 -7 -34 -15 -54 -11 -27 -25 -39 -60 -52 -40 -16 -49 -16 -82 -3 -22 8
-39 22 -41 32 -4 17 -1 17 33 -4 35 -22 37 -22 79 -6 45 17 66 47 66 92 0 14
4 22 10 19 6 -3 10 -14 10 -24z m-100 -6 c18 -21 35 -19 19 3 -11 14 -11 15 1
5 20 -18 22 -43 2 -36 -10 4 -13 2 -8 -5 5 -8 1 -10 -10 -5 -12 4 -15 3 -10
-5 5 -8 1 -10 -10 -5 -11 4 -15 3 -10 -5 13 -21 -15 -23 -48 -3 -32 20 -33 20
-50 2 -13 -14 -14 -21 -6 -26 8 -5 1 -14 -19 -28 -18 -11 -30 -22 -27 -25 3
-2 17 3 30 12 14 9 29 16 33 16 4 0 -6 -10 -24 -21 -34 -22 -63 -18 -43 6 8
10 3 17 -20 32 l-30 19 56 27 c41 20 59 25 69 17 7 -6 19 -8 28 -4 8 3 18 1
22 -5 3 -6 11 -11 17 -11 6 0 5 7 -3 18 -11 14 -11 15 1 5 21 -19 34 -16 19 5
-11 14 -11 15 1 5 8 -7 19 -13 25 -13 5 1 -1 10 -14 20 -13 11 -19 20 -13 20
5 0 15 -7 22 -15z m-70 -11 c0 -2 -7 -4 -15 -4 -8 0 -15 4 -15 10 0 5 7 7 15
4 8 -4 15 -8 15 -10z m-150 -100 c-6 -6 -7 -14 -3 -18 4 -4 -1 -4 -11 0 -13 5
-17 4 -12 -4 5 -8 2 -10 -9 -5 -13 5 -14 7 -3 14 10 7 10 9 -2 9 -13 0 -13 2
-1 9 21 14 52 10 41 -5z"/>
<path d="M3820 792 c0 -12 19 -26 26 -19 2 2 -2 10 -11 17 -9 8 -15 8 -15 2z"/>
<path d="M3402 626 l-44 -22 26 -18 c26 -16 46 -14 46 5 0 5 -5 9 -11 9 -5 0
-7 -5 -3 -12 5 -7 3 -8 -6 -3 -10 6 -4 15 21 36 41 34 30 36 -29 5z"/>
<path d="M3504 625 c11 -8 24 -15 30 -15 5 0 1 7 -10 15 -10 8 -23 14 -29 14
-5 0 -1 -6 9 -14z"/>
<path d="M2061 877 c0 -10 7 -21 17 -24 9 -4 20 -11 24 -17 5 -7 8 -6 8 2 0 8
-9 16 -19 19 -11 3 -22 12 -24 22 -4 14 -5 14 -6 -2z"/>
<path d="M2120 872 c0 -8 81 -54 86 -49 2 1 -17 15 -41 30 -25 14 -45 23 -45
19z"/>
<path d="M1258 839 c-32 -16 -58 -32 -58 -34 0 -3 27 8 60 25 33 17 60 32 60
35 0 7 2 8 -62 -26z"/>
<path d="M2137 800 c3 -25 7 -47 9 -49 8 -9 2 55 -6 74 -6 13 -7 5 -3 -25z"/>
<path d="M2150 826 c0 -3 20 -17 45 -32 25 -14 43 -30 40 -34 -3 -5 -1 -11 4
-14 12 -8 8 22 -5 33 -17 15 -84 53 -84 47z"/>
<path d="M2111 804 c0 -11 3 -14 6 -6 3 7 2 16 -1 19 -3 4 -6 -2 -5 -13z"/>
<path d="M2248 800 c17 -11 32 -27 32 -35 0 -8 4 -15 9 -15 5 0 7 8 4 18 -4
17 -51 52 -70 52 -4 0 7 -9 25 -20z"/>
<path d="M2456 778 c10 -14 21 -24 23 -22 3 3 -6 15 -18 27 l-24 22 19 -27z"/>
<path d="M2300 786 c0 -2 9 -6 20 -9 11 -3 18 -1 14 4 -5 9 -34 13 -34 5z"/>
<path d="M1808 754 c-39 -21 -35 -28 5 -8 37 19 44 24 31 24 -5 -1 -21 -8 -36
-16z"/>
<path d="M1900 763 c8 -3 27 -12 43 -20 15 -7 27 -11 27 -9 0 8 -58 36 -72 35
-9 0 -8 -2 2 -6z"/>
<path d="M2122 750 c0 -14 2 -19 5 -12 2 6 2 18 0 25 -3 6 -5 1 -5 -13z"/>
<path d="M2198 763 c7 -3 16 -2 19 1 4 3 -2 6 -13 5 -11 0 -14 -3 -6 -6z"/>
<path d="M2167 754 c7 -3 9 -12 6 -20 -3 -8 0 -14 7 -14 6 0 8 5 4 11 -4 8 1
9 17 5 24 -7 24 -7 -1 8 -14 9 -29 15 -35 15 -5 0 -5 -3 2 -5z"/>
<path d="M2153 721 c2 -21 11 -27 65 -42 34 -10 62 -13 62 -8 0 5 -10 9 -22
10 -21 0 -22 1 -4 8 19 7 19 8 -2 13 -14 4 -20 2 -16 -4 4 -6 -2 -8 -16 -3
-12 4 -29 8 -38 9 -9 2 -19 11 -24 22 -6 16 -7 16 -5 -5z"/>
<path d="M1708 704 c-27 -13 -48 -27 -48 -29 0 -5 99 42 109 51 13 11 -20 0
-61 -22z"/>
<path d="M2292 702 c-2 -26 3 -34 24 -42 26 -10 75 7 90 32 4 6 -3 4 -17 -5
-13 -9 -38 -17 -56 -17 -28 0 -32 3 -36 33 l-4 32 -1 -33z"/>
<path d="M1995 707 c6 -13 -101 -79 -214 -131 -49 -22 -57 -23 -85 -12 -17 7
-30 19 -28 25 1 7 -2 10 -8 6 -13 -8 -49 12 -46 27 1 7 6 20 11 28 7 12 6 13
-6 3 -9 -7 -16 -32 -18 -57 l-2 -45 67 -31 c37 -16 71 -30 76 -30 5 0 67 28
139 62 l129 62 0 48 c0 26 -4 50 -10 53 -5 3 -7 0 -5 -8z"/>
<path d="M2425 711 c-4 -7 0 -8 10 -4 10 3 21 0 27 -8 8 -12 9 -11 5 1 -5 18
-33 25 -42 11z"/>
<path d="M2860 716 c0 -3 14 -12 30 -21 17 -9 30 -13 30 -11 0 3 -13 12 -30
21 -16 9 -30 13 -30 11z"/>
<path d="M2131 697 c-1 -10 10 -22 27 -28 45 -18 135 -38 167 -38 24 1 21 3
-15 10 -113 23 -169 42 -173 57 -4 15 -5 15 -6 -1z"/>
<path d="M2430 680 c-9 -6 -10 -10 -3 -10 6 0 15 5 18 10 8 12 4 12 -15 0z"/>
<path d="M2935 673 c6 -5 37 -24 70 -42 33 -17 51 -25 40 -16 -23 19 -125 72
-110 58z"/>
<path d="M2170 641 c0 -5 5 -13 10 -16 6 -3 10 -2 10 4 0 5 -4 13 -10 16 -5 3
-10 2 -10 -4z"/>
<path d="M2153 616 c1 -11 9 -21 17 -23 10 -3 11 -2 4 4 -6 4 -14 15 -17 23
-5 11 -6 9 -4 -4z"/>
<path d="M2763 620 c4 -16 115 -95 123 -87 3 2 -20 18 -50 36 -30 17 -60 38
-66 48 -7 12 -10 13 -7 3z"/>
<path d="M2305 601 c-8 -15 3 -31 21 -31 9 0 14 7 12 17 -4 20 -24 28 -33 14z"/>
<path d="M3070 596 c0 -6 131 -79 135 -74 2 2 -28 20 -66 41 -38 21 -69 36
-69 33z"/>
<path d="M2901 527 c14 -12 119 -68 119 -63 0 6 -105 66 -115 66 -5 0 -6 -2
-4 -3z"/>
<path d="M3030 456 c0 -2 35 -23 78 -46 42 -24 90 -52 105 -62 16 -11 30 -18
33 -15 3 2 -30 25 -73 49 -96 56 -143 80 -143 74z"/>
</g>
</svg>
